<svg id="Capa_1" enable-background="new 0 0 512 512" height="512" viewBox="0 0 512 512" width="512" xmlns="http://www.w3.org/2000/svg"><g><g><circle cx="256" cy="245" fill="#510e3c" r="245"/></g><g><circle cx="256" cy="210" fill="#3a082d" r="190"/></g><g><path d="m250.514 282.906c-123.337 0-214.99 69.057-214.99 69.057h429.979c.001 0-91.652-69.057-214.989-69.057z" fill="#fcf1d4"/></g><g><path d="m256 18.066c-20.168 0-93.707 100.337-93.707 176.369s93.707 118.41 93.707 118.41 93.707-42.378 93.707-118.41-73.539-176.369-93.707-176.369z" fill="#fb8b24"/></g><g><path d="m226.872 122.064c-27.064 26.553-31.862 48.511-31.862 48.511s-16.725-46.688 5.784-91.514c-20.576 34.386-38.501 77.839-38.501 115.375 0 76.032 93.707 118.41 93.707 118.41s13.037-5.898 29.384-17.236c-87.171-77.714-58.512-173.546-58.512-173.546z" fill="#f75d08"/></g><g><path d="m256 156.632c-10.688 0-49.658 53.172-49.658 93.464s49.658 62.749 49.658 62.749 49.658-22.458 49.658-62.749-38.97-93.464-49.658-93.464z" fill="#ffc364"/></g><g><path d="m225.171 191.633c-10.228 17.765-18.829 39.535-18.829 58.463 0 40.292 49.658 62.749 49.658 62.749s14.369-6.502 27.649-18.78c-37.348-33.993-52.844-71.284-58.478-102.432z" fill="#fcb332"/></g><g><path d="m63.896 442.852 192.104 26.957 192.106-26.958c17.242-15.598 31.305-32.425 42.693-48.898 0 0-113.544 13.89-234.799-110.999-121.254 124.887-234.796 110.999-234.799 110.998 11.388 16.475 25.453 33.302 42.695 48.9z" fill="#f94a38"/></g><g><path d="m63.896 442.852 152.638 21.418c-42.717-24.076-68.743-59.976-84.512-92.861-64.763 28.165-110.819 22.543-110.821 22.543 11.388 16.475 25.453 33.302 42.695 48.9z" fill="#e84126"/></g><g><path d="m481.473 333.201c-27.976 12.044-64.666 19.151-104.621 4.168-57.008-21.378-81.848-54.548-92.189-74.824-5.513-10.81-16.529-17.7-28.663-17.7-12.134 0-23.15 6.891-28.663 17.7-10.341 20.276-35.181 53.446-92.189 74.824-39.955 14.983-76.646 7.877-104.621-4.168-18.98-8.172-37.59 12.107-27.856 30.335 5.196 9.729 11.331 20.002 18.53 30.416 19.171 8.433 42.18 14.892 67.717 14.891 18.088 0 36.005-3.28 53.252-9.748 64.45-24.168 92.186-63.293 102.983-84.464 2.135-4.186 6.291-6.787 10.846-6.787s8.711 2.601 10.847 6.787c10.797 21.17 38.534 60.295 102.983 84.463 17.248 6.468 35.164 9.748 53.244 9.748h.011c25.538-.002 48.547-6.462 67.718-14.897 7.197-10.412 13.331-20.683 18.526-30.41 9.736-18.227-8.874-38.505-27.855-30.334z" fill="#a03c32"/></g><g><path d="m120.088 342.042c-34.077 8.421-65.14 1.673-89.561-8.841-18.98-8.172-37.59 12.107-27.856 30.335 5.196 9.729 11.331 20.002 18.53 30.416 19.171 8.433 42.18 14.892 67.717 14.891 18.088 0 36.005-3.28 53.252-9.748 1.474-.553 2.908-1.122 4.344-1.69-12.297-19.102-20.708-38.476-26.426-55.363z" fill="#843125"/></g><g><circle cx="256" cy="278.566" fill="#843125" r="12.5"/></g><g><path d="m256 278.566c0-4.624 2.517-8.652 6.25-10.814-1.84-1.066-3.971-1.686-6.25-1.686-6.904 0-12.5 5.596-12.5 12.5s5.596 12.5 12.5 12.5c2.279 0 4.41-.62 6.25-1.686-3.733-2.162-6.25-6.19-6.25-10.814z" fill="#682316"/></g><g><circle cx="304.489" cy="325.345" fill="#843125" r="12.5"/></g><g><path d="m304.489 325.345c0-4.624 2.517-8.652 6.25-10.814-1.84-1.066-3.971-1.686-6.25-1.686-6.904 0-12.5 5.596-12.5 12.5s5.596 12.5 12.5 12.5c2.279 0 4.41-.62 6.25-1.686-3.732-2.162-6.25-6.19-6.25-10.814z" fill="#682316"/></g><g><circle cx="354.532" cy="359.047" fill="#843125" r="12.5"/></g><g><circle cx="416.149" cy="378.452" fill="#843125" r="12.5"/></g><g><circle cx="476.301" cy="365.952" fill="#843125" r="12.5"/></g><g><circle cx="207.511" cy="325.345" fill="#843125" r="12.5"/></g><g><circle cx="157.468" cy="359.047" fill="#843125" r="12.5"/></g><g><circle cx="95.851" cy="378.452" fill="#682316" r="12.5"/></g><g><circle cx="35.699" cy="365.952" fill="#682316" r="12.5"/></g><g><path d="m432.483 443.261c-7.287-5.225-15.872-9.389-29.555-9.389-36.729 0-36.729 30-73.458 30-36.731 0-36.731-30-73.461-30-36.732 0-36.732 30-73.463 30-36.733 0-36.733-30-73.467-30-13.686 0-22.272 4.165-29.56 9.39v12.662c41.42 31.997 98.493 56.076 176.481 56.076 77.989 0 135.062-24.079 176.483-56.077z" fill="#fcb332"/></g><g><path d="m206.383 458.126c-6.14 3.39-13.547 5.747-23.838 5.747-36.733 0-36.733-30-73.467-30-13.686 0-22.272 4.165-29.56 9.39v12.662c41.421 31.996 98.494 56.075 176.482 56.075 46.022 0 84.756-8.39 117.295-21.839-74.568 8.111-128.27-7.02-166.912-32.035z" fill="#fb8b24"/></g><g><path d="m109.078 443.873c14.802 0 21.689 5.625 30.408 12.745 9.413 7.688 21.128 17.255 43.059 17.255 21.93 0 33.645-9.567 43.057-17.255 8.719-7.121 15.605-12.745 30.406-12.745 14.8 0 21.687 5.625 30.405 12.745 9.412 7.688 21.126 17.255 43.056 17.255 21.929 0 33.643-9.567 43.055-17.255 8.717-7.121 15.603-12.745 30.403-12.745 14.314 0 21.23 5.266 29.555 12.053 5.478-4.232 10.68-8.603 15.623-13.075-.699-.564-1.403-1.136-2.122-1.723-9.412-7.688-21.126-17.255-43.056-17.255-21.929 0-33.643 9.567-43.055 17.255-8.718 7.121-15.604 12.745-30.403 12.745-14.8 0-21.687-5.625-30.405-12.745-9.412-7.688-21.126-17.255-43.056-17.255-21.931 0-33.645 9.567-43.058 17.255-8.718 7.121-15.605 12.745-30.406 12.745-14.802 0-21.689-5.625-30.408-12.745-9.413-7.688-21.128-17.255-43.059-17.255s-33.646 9.567-43.059 17.255c-.719.587-1.424 1.16-2.123 1.725 4.943 4.471 10.144 8.843 15.623 13.075 8.327-6.789 15.243-12.055 29.56-12.055z" fill="#fcf1d4"/></g><g><path d="m255.997 423.873c-21.923.003-33.635 9.569-43.046 17.255-8.718 7.121-15.605 12.745-30.406 12.745-14.802 0-21.689-5.625-30.408-12.745-9.413-7.688-21.128-17.255-43.059-17.255s-33.646 9.567-43.059 17.255c-.719.587-1.424 1.16-2.123 1.725 4.943 4.471 10.144 8.843 15.623 13.075 8.327-6.788 15.243-12.054 29.56-12.054 14.802 0 21.689 5.625 30.408 12.745 9.413 7.688 21.128 17.255 43.059 17.255 21.93 0 33.645-9.567 43.057-17.255 8.717-7.119 15.603-12.743 30.397-12.745-5.523 0-10-4.477-10-10s4.475-9.999 9.997-10.001z" fill="#f2e1bb"/></g><g><path d="m354.532 359.047c0-4.624 2.517-8.652 6.25-10.814-1.84-1.066-3.971-1.686-6.25-1.686-6.904 0-12.5 5.596-12.5 12.5s5.596 12.5 12.5 12.5c2.279 0 4.41-.62 6.25-1.686-3.733-2.162-6.25-6.19-6.25-10.814z" fill="#682316"/></g><g><path d="m416.149 378.452c0-4.624 2.517-8.652 6.25-10.814-1.84-1.066-3.971-1.686-6.25-1.686-6.904 0-12.5 5.596-12.5 12.5s5.596 12.5 12.5 12.5c2.279 0 4.41-.62 6.25-1.686-3.733-2.163-6.25-6.19-6.25-10.814z" fill="#682316"/></g><g><path d="m476.301 365.952c0-4.624 2.517-8.652 6.25-10.814-1.84-1.066-3.971-1.686-6.25-1.686-6.904 0-12.5 5.596-12.5 12.5s5.596 12.5 12.5 12.5c2.279 0 4.41-.62 6.25-1.686-3.732-2.163-6.25-6.19-6.25-10.814z" fill="#682316"/></g><g><path d="m207.511 325.345c0-4.624 2.517-8.652 6.25-10.814-1.84-1.066-3.971-1.686-6.25-1.686-6.904 0-12.5 5.596-12.5 12.5s5.596 12.5 12.5 12.5c2.279 0 4.41-.62 6.25-1.686-3.733-2.162-6.25-6.19-6.25-10.814z" fill="#682316"/></g><g><path d="m157.468 359.047c0-4.624 2.517-8.652 6.25-10.814-1.84-1.066-3.971-1.686-6.25-1.686-6.904 0-12.5 5.596-12.5 12.5s5.596 12.5 12.5 12.5c2.279 0 4.41-.62 6.25-1.686-3.733-2.162-6.25-6.19-6.25-10.814z" fill="#682316"/></g><g><path d="m95.851 378.452c0-4.624 2.517-8.652 6.25-10.814-1.84-1.066-3.971-1.686-6.25-1.686-6.904 0-12.5 5.596-12.5 12.5s5.596 12.5 12.5 12.5c2.279 0 4.41-.62 6.25-1.686-3.733-2.163-6.25-6.19-6.25-10.814z" fill="#561e11"/></g><g><path d="m35.699 365.952c0-4.624 2.517-8.652 6.25-10.814-1.84-1.066-3.971-1.686-6.25-1.686-6.904 0-12.5 5.596-12.5 12.5s5.596 12.5 12.5 12.5c2.279 0 4.41-.62 6.25-1.686-3.733-2.163-6.25-6.19-6.25-10.814z" fill="#561e11"/></g></g></svg>