<!-- Generator: Adobe Illustrator 19.2.1, SVG Export Plug-In  -->
<svg version="1.1"
	 xmlns="http://www.w3.org/2000/svg" xmlns:xlink="http://www.w3.org/1999/xlink" xmlns:a="http://ns.adobe.com/AdobeSVGViewerExtensions/3.0/"
	 x="0px" y="0px" width="734.703px" height="755.668px" viewBox="0 0 734.703 755.668"
	 style="enable-background:new 0 0 734.703 755.668;" xml:space="preserve">
<style type="text/css">
	.st0{fill:#EFEFEF;}
</style>
<defs>
</defs>
<g>
	<circle class="st0" cx="374.412" cy="366.396" r="17.36"/>
	<path class="st0" d="M423.587,314.778c77.588-79.549-28.16-128.695-47.739-16.76c-2.452-116.68-118.368-48.215-45.685,26.292
		c-76.75-76.541-112.339,17.005-29.89,34.18c-109.902-19.547-64.824,118.061,36.491,39.47
		c-99.282,80.285,26.463,125.363,38.477,28.688c-7.607,140.398,110.003,58.716,33.001-24.861
		c88.865,86.627,157.669-19.799,32.501-38.088C547.947,368.43,515.749,244.04,423.587,314.778z M376.155,307.899
		c19.949-78.772,95.531-45.895,26.932,23.978c-5.666,5.772-9.643,9.415-11.717,12.169c-0.67-0.496-1.343-0.99-2.055-1.43
		c4.858-3.711,10.668-12.629,18.869-22.355c11.46-13.597,8.703-31.504,2.441-34.468c-6.258-2.964-21.697,6.281-25.113,23.733
		c-2.598,13.309-5.842,23.49-5.347,29.389c-1.954-0.417-7.109-0.578-7.636-0.548C372.498,330.983,373.814,320.142,376.155,307.899z
		 M374.047,388.427c-11.603-0.014-21-9.435-20.987-21.038c0.016-11.606,9.435-21.005,21.04-20.989
		c11.604,0.015,21.001,9.434,20.988,21.039C395.074,379.043,385.653,388.443,374.047,388.427z M373.483,307.065
		c-3.141,13.311-3.668,25.612-3.771,31.586c-0.906,0.143-1.811,0.294-2.693,0.514c1.038-5.963-1.252-16.614-2.367-29.692
		c-1.512-17.719-16.121-28.432-22.643-26.1c-6.522,2.33-10.904,19.787-0.977,34.54c7.822,11.621,12.8,21.361,17.447,24.917
		c-1.973,1.255-3.773,2.751-5.383,4.43c-0.246-0.246-0.503-0.455-0.736-0.736C279.85,259.293,360.177,217.943,373.483,307.065z
		 M351.084,349.087c0.08,0.082,0.146,0.142,0.225,0.221c-0.768,0.966-1.491,1.97-2.134,3.031
		c-3.257-5.031-12.63-11.03-22.931-19.714c-13.597-11.46-31.505-8.702-34.468-2.442c-2.964,6.26,6.281,21.698,23.733,25.112
		c13.992,2.734,24.53,6.186,30.269,5.248c-0.36,1.475-0.572,3.003-0.702,4.554c-7.033-0.791-26.156-3.159-34.446-6.275
		C243.922,334.197,281.883,276.578,351.084,349.087z M309.099,361.283c9.537,2.685,28.19,5.712,35.906,7.404
		c0.08,1.777,0.289,3.524,0.673,5.208c-5.844-1.284-16.746,1.112-30.222,2.262c-17.717,1.512-28.432,16.12-26.101,22.642
		c2.332,6.522,23.711,7.592,34.541,0.978c12.117-7.401,21.639-12.933,25.065-17.635c0.49,0.834,1.038,1.625,1.605,2.401
		C263.581,457.231,214.435,365.38,309.099,361.283z M375.04,413.024c-32.826,102.843-102.647,40.478-22.688-26.286
		c1.7,1.911,3.614,3.625,5.762,5.036c-4.988,3.381-10.941,12.631-19.507,22.788c-11.458,13.597-8.704,31.511-2.441,34.471
		c6.257,2.96,21.697-6.283,25.113-23.736c2.653-13.586,5.974-23.905,5.306-29.747c2.381,0.636,8.9,0.959,9.617,0.906
		C375.561,402.109,375.175,407.654,375.04,413.024z M377.768,413.683c1.009-8.259,1.499-13.688,1.647-17.633
		c0.096-0.019,0.193-0.023,0.289-0.042c-0.89,6.023,1.343,16.528,2.437,29.344c1.512,17.715,16.12,28.431,22.642,26.104
		c6.522-2.333,10.904-19.788,0.978-34.542c-7.496-11.132-12.379-20.551-16.859-24.448c1.564-0.93,3.011-2.031,4.374-3.226
		C459.146,463.671,389.325,528.068,377.768,413.683z M477.261,383.729c5.238,6.898,6.125,15.631,2.632,25.955
		c-3.524,10.423-9.938,15.931-19.062,16.37c-22.899,1.21-56.128-29.303-63.87-40.693c0.477-0.605,0.961-1.202,1.388-1.844
		c3.791,4.819,12.596,10.584,22.197,18.685c13.6,11.455,31.511,8.701,34.471,2.441c2.96-6.26-6.283-21.697-23.736-25.113
		c-12.916-2.523-22.904-5.664-28.873-5.394c0.514-2.153,0.815-4.385,0.818-6.687c0-1.072-0.063-2.131-0.18-3.172
		c7.525,0.28,21.165,0.521,23.696,0.421C444.834,366.317,467.561,370.961,477.261,383.729z M427.906,362.003
		c-11.331-1.059-21.626-0.679-25.317-0.483c-0.023-0.117-0.031-0.237-0.058-0.353c6.098,0.696,16.356-1.438,28.804-2.497
		c17.715-1.513,28.434-16.125,26.103-22.645c-2.333-6.522-19.788-10.9-34.542-0.973c-10.974,7.386-20.3,12.237-24.298,16.668
		c-1.215-1.891-2.646-3.624-4.25-5.179C480.838,266.749,533.712,351.144,427.906,362.003z"/>
</g>
<path class="st0" d="M624.833,365.724c-3.575-5.93-10.859-9.879-18.801-10.618c8.905-4.795,15.663-12.961,15.809-20.605
	c0.082-4.333-1.962-11.827-16.084-14.794c5.146-8.142,2.54-15.946-2.391-19.991c-4.485-3.676-11.693-4.816-18.114,0.266
	c0.862-7.338-1.046-14.52-4.762-19.213c-5.483-6.932-14.195-8.469-23.553-4.249c-1.033-4.793-3.705-8.116-7.655-9.45
	c-5.116-1.723-11.455,0.272-16.144,5.101c-7.655,7.883-10.674,21.402-13.595,34.476c-1.795,8.041-4.191,15.366-6.153,21.519
	c-9.038,28.322-30.103,34.398-30.78,34.698l0.119,3.427c7.719,8.037,77.667,47.435,111.195,47.432c4.739,0,9.308-0.521,13.615-1.673
	c4.562-1.224,7.991-4.785,9.17-9.533c1.097-4.411,0.138-9.053-2.505-12.715c3.596-0.326,7.316-1.756,9.246-4.65
	C627.886,378.504,628.376,371.603,624.833,365.724z M592.751,329.758c26.402-3.132,13.575,25.042,0.895,26.638
	c-10.976,1.382-37.084,3.247-60.357,4.633c14.559-3.121,29.006-6.901,43.08-10.257c-1.052,0.151-2.005,0.296-2.905,0.438
	c-13.055,1.981-26.371,4.638-39.737,6.759c17.622-5.555,34.749-13.176,50.776-21.093c-17.635,6.939-36.56,13.952-55.766,18.279
	c13.431-6.018,26.326-13.56,38.142-20.651c-17.813,8.426-37.781,19.152-57.93,23.707c0.403-0.266,0.806-0.532,1.202-0.805
	c2.972-0.958,5.755-1.925,7.857-2.793c20.617-8.51,48.034-24.72,60.545-39.234C581.446,312.018,603.369,305.354,592.751,329.758z
	 M515.857,329.283c2.219-6.361,4.507-13.864,6.334-22.045c2.838-12.706,24.914-37.811,28.304-11.826
	c18.077-18.98,34.542,8.286,26.002,18.193c-12.063,13.998-38.453,29.658-58.667,38.133c1.295-1.011,2.565-2.021,3.808-3.016
	c8.68-7.003,16.889-14.574,24.732-22.5c0.837-0.816,1.798-1.781,2.884-2.904c-8.624,7.173-17.619,13.957-27.006,20.119
	c9.434-9.882,17.539-21.257,24.294-31.643c-9.119,11.26-20.113,25.37-32.766,35.889c8.898-11.777,14.41-26.82,17.429-40.433
	c0.13-0.538,0.273-1.164,0.424-1.896c-5.473,16.424-14.69,38.477-29.934,49.224C506.428,350.458,510.895,343.509,515.857,329.283z
	 M594.103,380.598c10.097,9.656,12.718,49.775-87.046-3.686c15.552,6.017,31.858,9.821,48.336,12.599
	c1.001,0.184,2.095,0.376,3.35,0.578c-16.412-4.449-34.124-9.374-50.197-16.748c24.329,5.499,49.356,7.348,74.262,8.952
	c-20.331-2.995-41.957-5.259-62.663-9.896c17.293,0.58,34.892-0.648,51.479-1.628c-20.498-0.763-42.743-1.17-63.554-5.227
	c2.812-0.384,5.624-0.805,8.436-1.279c26.95-1.372,64.665-3.563,77.479-5.177C596.28,358.798,620.315,367.946,594.103,380.598z"/>
<g>
	<path class="st0" d="M228.608,716.188c-3.696-12.654-10.862-24.901-19.159-39.081c-17.222-29.429-38.656-66.055-40.204-127.357
		c-2.298-91.01,76.336-131.48,77.13-131.878l2.668-1.337l2.076,2.145c5.349,5.523,13.146,8.325,23.174,8.325
		c10.263,0,19.513-2.944,22.131-3.858l0.698-0.252l2.827,7.626l-0.773,0.28c-89.14,32.504-74.057,150.334-66.952,187.17
		c9.369-12.546,27.895-21.361,48.65-31.235c15.336-7.298,31.194-14.844,44.604-24.567c34.153-24.764,37.161-94.672,37.188-95.376
		l8.13,0.262c-0.81,30.468,32.066,41.097,32.395,41.199l3.114,0.972l-0.271,3.25c-0.418,4.978-5.084,29.794-20.299,60.23
		c-9.459,18.906-37.31,34.062-66.8,50.109c-17.703,9.633-36.008,19.592-50.051,30.383c-34.714,26.67-32.433,60.1-32.319,61.511
		l-0.438,17.062L228.608,716.188z M247.581,426.499c-12.88,7.491-72.145,46.215-70.204,123.045
		c1.496,59.207,22.342,94.833,39.093,123.457c5.123,8.754,9.828,16.796,13.634,24.758c3.09-13.952,11.487-33.851,33.823-51.013
		c14.551-11.179,33.142-21.294,51.12-31.076c28.336-15.418,55.097-29.982,63.412-46.604c12.45-24.896,17.603-46.056,19.044-54.296
		c-6.498-2.737-21.104-10.199-29.197-24.57c-3.876,24.147-13.647,60.86-38.051,78.557c-14.018,10.16-30.218,17.868-45.886,25.325
		c-23.513,11.188-45.722,21.753-49.731,37.036l-3.912,14.916l-3.952-14.905c-0.449-1.69-10.936-41.896-7.942-87.781
		c3.274-50.189,21.69-87.077,53.676-108.234C262.314,434.813,253.949,431.922,247.581,426.499z"/>
</g>
<g>
	<g>
		<path class="st0" d="M397.913,527.051c-0.289,0-0.577-0.09-0.823-0.277l-34.347-26.212c-0.593-0.456-0.71-1.306-0.254-1.901
			c0.456-0.599,1.308-0.71,1.901-0.255l34.346,26.212c0.593,0.456,0.71,1.306,0.254,1.901
			C398.724,526.869,398.32,527.051,397.913,527.051z"/>
	</g>
	<g>
		<path class="st0" d="M394.749,535.636c-0.297,0-0.594-0.096-0.845-0.294l-32.986-26.209c-0.588-0.467-0.686-1.319-0.22-1.904
			c0.469-0.591,1.319-0.684,1.907-0.22l32.985,26.209c0.588,0.466,0.686,1.319,0.22,1.904
			C395.543,535.462,395.145,535.636,394.749,535.636z"/>
	</g>
	<g>
		<path class="st0" d="M392.037,545.579c-0.305,0-0.609-0.101-0.863-0.31l-33.44-27.567c-0.578-0.477-0.66-1.329-0.183-1.909
			c0.477-0.574,1.33-0.656,1.909-0.183l33.441,27.567c0.577,0.477,0.659,1.329,0.183,1.909
			C392.815,545.41,392.427,545.579,392.037,545.579z"/>
	</g>
	<g>
		<path class="st0" d="M385.711,559.136c-0.339,0-0.681-0.127-0.945-0.384l-30.279-29.373c-0.535-0.52-0.548-1.38-0.026-1.915
			c0.516-0.537,1.377-0.556,1.915-0.029l30.279,29.374c0.537,0.518,0.551,1.38,0.028,1.917
			C386.418,558.999,386.066,559.136,385.711,559.136z"/>
	</g>
	<g>
		<path class="st0" d="M376.674,577.214c-0.432,0-0.855-0.207-1.117-0.588l-26.665-38.867c-0.423-0.619-0.268-1.461,0.35-1.885
			c0.622-0.424,1.464-0.265,1.885,0.35l26.664,38.866c0.424,0.619,0.268,1.462-0.35,1.886
			C377.206,577.137,376.938,577.214,376.674,577.214z"/>
	</g>
	<g>
		<path class="st0" d="M364.922,589.416c-0.514,0-1.006-0.294-1.234-0.792l-19.431-42.481c-0.309-0.681-0.011-1.485,0.67-1.798
			c0.673-0.305,1.485-0.014,1.798,0.67l19.431,42.48c0.31,0.681,0.011,1.485-0.67,1.798
			C365.304,589.376,365.113,589.416,364.922,589.416z"/>
	</g>
	<g>
		<path class="st0" d="M350.915,600.712c-0.577,0-1.112-0.37-1.294-0.95l-13.558-43.384c-0.223-0.715,0.175-1.475,0.89-1.7
			c0.728-0.225,1.475,0.178,1.7,0.89l13.557,43.384c0.223,0.715-0.175,1.475-0.89,1.7
			C351.185,600.693,351.047,600.712,350.915,600.712z"/>
	</g>
	<g>
		<path class="st0" d="M336.902,607.041c-0.625,0-1.189-0.438-1.324-1.075l-8.587-40.673c-0.155-0.733,0.314-1.453,1.046-1.607
			c0.741-0.143,1.452,0.315,1.608,1.046l8.587,40.672c0.154,0.733-0.315,1.454-1.046,1.607
			C337.09,607.03,336.997,607.041,336.902,607.041z"/>
	</g>
	<g>
		<path class="st0" d="M322.893,615.625c-0.673,0-1.256-0.5-1.344-1.184l-5.423-42.477c-0.094-0.744,0.431-1.422,1.173-1.518
			c0.757-0.101,1.422,0.432,1.517,1.173l5.423,42.478c0.094,0.744-0.43,1.422-1.173,1.518
			C323.008,615.623,322.95,615.625,322.893,615.625z"/>
	</g>
	<g>
		<path class="st0" d="M310.24,621.501c-0.688,0-1.279-0.522-1.348-1.224l-4.067-41.125c-0.074-0.744,0.47-1.408,1.215-1.482
			c0.752-0.045,1.41,0.472,1.483,1.218l4.067,41.125c0.074,0.744-0.47,1.409-1.215,1.483
			C310.33,621.498,310.284,621.501,310.24,621.501z"/>
	</g>
	<g>
		<path class="st0" d="M299.394,629.635c-0.669,0-1.25-0.492-1.343-1.173l-5.875-43.384c-0.101-0.744,0.42-1.425,1.163-1.525
			c0.746-0.135,1.425,0.418,1.525,1.16l5.875,43.383c0.101,0.744-0.42,1.425-1.163,1.525
			C299.516,629.633,299.454,629.635,299.394,629.635z"/>
	</g>
	<g>
		<path class="st0" d="M288.097,635.058c-0.667,0-1.248-0.492-1.341-1.171l-5.876-42.48c-0.103-0.741,0.415-1.425,1.157-1.527
			c0.742-0.109,1.425,0.415,1.528,1.157l5.876,42.481c0.103,0.741-0.415,1.425-1.157,1.527
			C288.221,635.053,288.157,635.058,288.097,635.058z"/>
	</g>
	<g>
		<path class="st0" d="M277.25,642.29c-0.689,0-1.278-0.522-1.348-1.221l-4.52-45.192c-0.074-0.744,0.469-1.408,1.214-1.482
			c0.757-0.071,1.41,0.469,1.484,1.213l4.52,45.191c0.074,0.744-0.469,1.409-1.214,1.483
			C277.34,642.287,277.295,642.29,277.25,642.29z"/>
	</g>
	<g>
		<path class="st0" d="M267.308,649.971c-0.669,0-1.251-0.495-1.343-1.176l-6.326-46.998c-0.099-0.741,0.421-1.425,1.163-1.522
			c0.758-0.141,1.426,0.421,1.525,1.162l6.326,46.998c0.099,0.742-0.421,1.425-1.163,1.523
			C267.428,649.968,267.367,649.971,267.308,649.971z"/>
	</g>
	<g>
		<path class="st0" d="M255.559,659.462c-0.646,0-1.218-0.463-1.335-1.12l-8.587-48.807c-0.13-0.739,0.364-1.44,1.102-1.57
			c0.729-0.145,1.439,0.363,1.57,1.099l8.587,48.807c0.129,0.739-0.364,1.44-1.102,1.57
			C255.715,659.457,255.637,659.462,255.559,659.462z"/>
	</g>
	<g>
		<path class="st0" d="M245.616,671.211c-0.655,0-1.231-0.474-1.337-1.142l-8.134-51.065c-0.118-0.741,0.385-1.435,1.125-1.554
			c0.74-0.109,1.435,0.386,1.552,1.125l8.134,51.065c0.118,0.741-0.385,1.436-1.126,1.555
			C245.759,671.205,245.686,671.211,245.616,671.211z"/>
	</g>
	<g>
		<path class="st0" d="M230.704,708.268c-0.749,0-1.355-0.606-1.355-1.355v-80.441c0-0.75,0.606-1.356,1.355-1.356
			c0.749,0,1.356,0.606,1.356,1.356v80.441C232.06,707.662,231.453,708.268,230.704,708.268z"/>
	</g>
	<g>
		<path class="st0" d="M217.147,679.345c-0.087,0-0.177-0.009-0.267-0.027c-0.733-0.146-1.211-0.86-1.064-1.594l10.846-54.229
			c0.147-0.733,0.856-1.216,1.595-1.064c0.733,0.146,1.21,0.86,1.063,1.594l-10.846,54.229
			C218.347,678.9,217.781,679.345,217.147,679.345z"/>
	</g>
	<g>
		<path class="st0" d="M207.205,663.076c-0.162,0-0.324-0.029-0.483-0.09c-0.701-0.268-1.05-1.049-0.784-1.75l18.98-49.71
			c0.269-0.702,1.053-1.046,1.75-0.781c0.7,0.268,1.05,1.049,0.784,1.75l-18.98,49.71
			C208.265,662.745,207.75,663.076,207.205,663.076z"/>
	</g>
	<g>
		<path class="st0" d="M198.618,646.357c-0.236,0-0.474-0.06-0.691-0.19c-0.644-0.382-0.855-1.213-0.473-1.857l25.759-43.384
			c0.381-0.648,1.211-0.86,1.857-0.474c0.644,0.381,0.855,1.212,0.473,1.855l-25.759,43.384
			C199.531,646.122,199.081,646.357,198.618,646.357z"/>
	</g>
	<g>
		<path class="st0" d="M189.58,626.924c-0.333,0-0.665-0.121-0.927-0.365c-0.547-0.511-0.575-1.369-0.063-1.917l32.989-35.249
			c0.515-0.546,1.373-0.572,1.917-0.064c0.547,0.511,0.575,1.368,0.064,1.917l-32.989,35.249
			C190.303,626.781,189.941,626.924,189.58,626.924z"/>
	</g>
	<g>
		<path class="st0" d="M185.964,613.366c-0.352,0-0.706-0.137-0.971-0.41c-0.523-0.535-0.512-1.392,0.024-1.917l35.702-34.797
			c0.538-0.519,1.397-0.508,1.917,0.027c0.523,0.534,0.513,1.393-0.023,1.917l-35.702,34.796
			C186.647,613.239,186.306,613.366,185.964,613.366z"/>
	</g>
	<g>
		<path class="st0" d="M180.996,597.097c-0.393,0-0.781-0.169-1.05-0.495c-0.474-0.58-0.39-1.436,0.189-1.909l40.22-32.99
			c0.577-0.475,1.431-0.387,1.908,0.188c0.474,0.58,0.391,1.436-0.189,1.909l-40.219,32.991
			C181.602,596.997,181.297,597.097,180.996,597.097z"/>
	</g>
	<g>
		<path class="st0" d="M177.38,580.376c-0.44,0-0.87-0.212-1.131-0.607c-0.415-0.625-0.244-1.464,0.38-1.88l44.288-29.373
			c0.625-0.413,1.463-0.244,1.879,0.381c0.414,0.625,0.244,1.464-0.38,1.88l-44.288,29.374
			C177.897,580.301,177.637,580.376,177.38,580.376z"/>
	</g>
	<g>
		<path class="st0" d="M174.668,562.301c-0.495,0-0.973-0.273-1.211-0.744c-0.338-0.67-0.069-1.486,0.6-1.822l48.355-24.403
			c0.666-0.336,1.483-0.068,1.821,0.599c0.337,0.67,0.069,1.485-0.6,1.821l-48.355,24.403
			C175.081,562.254,174.874,562.301,174.668,562.301z"/>
	</g>
	<g>
		<path class="st0" d="M173.763,544.676c-0.558,0-1.079-0.345-1.276-0.9c-0.253-0.704,0.115-1.481,0.821-1.732l50.615-18.078
			c0.701-0.249,1.48,0.114,1.732,0.821c0.253,0.704-0.115,1.48-0.821,1.731l-50.615,18.078
			C174.068,544.65,173.914,544.676,173.763,544.676z"/>
	</g>
	<g>
		<path class="st0" d="M175.571,530.214c-0.581,0-1.118-0.376-1.296-0.959c-0.22-0.715,0.183-1.475,0.899-1.694l50.163-15.363
			c0.722-0.218,1.474,0.185,1.693,0.9c0.22,0.715-0.183,1.475-0.899,1.694l-50.163,15.363
			C175.836,530.195,175.702,530.214,175.571,530.214z"/>
	</g>
	<g>
		<path class="st0" d="M178.281,510.33c-0.655,0-1.232-0.477-1.337-1.144c-0.118-0.739,0.388-1.436,1.126-1.552l51.518-8.135
			c0.74-0.105,1.436,0.39,1.551,1.128c0.118,0.739-0.388,1.436-1.127,1.552l-51.518,8.135
			C178.423,510.325,178.352,510.33,178.281,510.33z"/>
	</g>
	<g>
		<path class="st0" d="M185.06,494.061c-0.715,0-1.312-0.559-1.352-1.282c-0.042-0.746,0.531-1.387,1.279-1.427l49.258-2.712
			c0.724-0.092,1.386,0.53,1.427,1.279c0.042,0.747-0.531,1.388-1.279,1.428l-49.258,2.711
			C185.11,494.061,185.085,494.061,185.06,494.061z"/>
	</g>
	<g>
		<path class="st0" d="M239.744,479.6c-0.019,0-0.036,0-0.053,0l-46.999-1.809c-0.75-0.028-1.332-0.659-1.303-1.408
			c0.029-0.749,0.731-1.292,1.406-1.303l46.999,1.809c0.749,0.029,1.332,0.659,1.303,1.408
			C241.069,479.029,240.468,479.6,239.744,479.6z"/>
	</g>
	<g>
		<path class="st0" d="M244.263,471.013c-0.068,0-0.137-0.005-0.206-0.016l-41.575-6.326c-0.74-0.111-1.249-0.803-1.136-1.544
			c0.112-0.738,0.796-1.26,1.544-1.136l41.575,6.326c0.74,0.111,1.249,0.802,1.136,1.544
			C245.499,470.532,244.922,471.013,244.263,471.013z"/>
	</g>
	<g>
		<path class="st0" d="M249.234,461.976c-0.099,0-0.2-0.011-0.3-0.034l-37.961-8.588c-0.731-0.164-1.189-0.89-1.023-1.62
			c0.166-0.732,0.893-1.197,1.622-1.022l37.961,8.587c0.731,0.165,1.189,0.891,1.023,1.621
			C250.413,461.549,249.854,461.976,249.234,461.976z"/>
	</g>
	<g>
		<path class="st0" d="M256.011,455.197c-0.156,0-0.315-0.026-0.47-0.084l-32.989-12.202c-0.703-0.26-1.062-1.038-0.801-1.742
			c0.26-0.702,1.04-1.064,1.741-0.8l32.989,12.202c0.703,0.259,1.062,1.037,0.801,1.742
			C257.081,454.858,256.562,455.197,256.011,455.197z"/>
	</g>
	<g>
		<path class="st0" d="M260.982,449.322c-0.209,0-0.421-0.048-0.62-0.151l-28.923-14.913c-0.666-0.345-0.927-1.16-0.584-1.827
			c0.343-0.665,1.157-0.93,1.826-0.582l28.923,14.913c0.666,0.344,0.927,1.159,0.583,1.827
			C261.947,449.054,261.473,449.322,260.982,449.322z"/>
	</g>
	<g>
		<path class="st0" d="M271.375,441.64c-0.196,0-0.395-0.043-0.583-0.133l-29.374-14.01c-0.675-0.323-0.962-1.131-0.639-1.807
			c0.323-0.675,1.136-0.961,1.807-0.641l29.374,14.011c0.675,0.322,0.962,1.13,0.64,1.806
			C272.368,441.356,271.882,441.64,271.375,441.64z"/>
	</g>
</g>
<path class="st0" d="M250.588,575.406c4.067-61.912,8.135-77.277,44.288-110.719c0,0,10.846,30.73,44.74,18.528
	C340.519,541.062,276.348,547.387,250.588,575.406z"/>
<g>
	<circle class="st0" cx="270.925" cy="470.11" r="7.232"/>
	<circle class="st0" cx="254.656" cy="493.611" r="7.231"/>
	<circle class="st0" cx="244.261" cy="519.37" r="7.231"/>
	<circle class="st0" cx="239.743" cy="543.773" r="7.231"/>
	<circle class="st0" cx="239.291" cy="568.176" r="7.231"/>
	<circle class="st0" cx="242.454" cy="592.58" r="7.231"/>
	<circle class="st0" cx="264.597" cy="581.734" r="7.232"/>
	<circle class="st0" cx="286.742" cy="568.627" r="7.231"/>
	<circle class="st0" cx="312.953" cy="552.358" r="7.231"/>
	<circle class="st0" cx="331.481" cy="534.283" r="7.231"/>
	<circle class="st0" cx="344.586" cy="513.947" r="7.232"/>
	<circle class="st0" cx="350.462" cy="488.188" r="7.231"/>
	<circle class="st0" cx="289.001" cy="451.13" r="7.232"/>
</g>
<path class="st0" d="M411.018,504.454c1.809,34.8-5.423,65.531-18.98,89.029c-13.332,23.108-65.076,55.585-42.028,82.7
	c23.908,28.129,67.787-24.858,75.018-72.76C432.259,555.522,418.699,522.529,411.018,504.454z"/>
<path class="st0" d="M407.403,508.521c5.643,38.154-12.552,70.366-38.734,96.603c-13.894,13.878-29.164,26.269-43.619,39.541
	c-13.173,12.094-25.946,25.285-32.53,42.219c-6.036,15.525-5.21,33.145,5.079,46.721c9.519,12.559,28.407,20.653,43.556,13.522
	c13.867-6.529,22.492-31.169,4.968-38.967c-6.445-2.865-15.086-1.35-17.269,6.212c-2.856,9.898,11.856,13.052,10.951,5.192
	c1.345,8.148-12.795,5.395-12.294-3.158c0.282-10.076,11.317-13.344,19.428-10.237c19.115,7.321,13.364,33.674-0.119,43.405
	c-15.313,11.227-37.993,5.661-51.107-6.3c-13.781-12.569-19.633-32.702-17.243-50.96c5.103-38.987,49.126-62.914,76.558-85.496
	C385.666,581.593,410.284,550.372,407.403,508.521C408.706,517.329,408.626,526.299,407.403,508.521z"/>
<path class="st0" d="M417.571,501.065c18.888,59.512,61.691,105.557,114.332,137.383
	C474.276,619.036,423.145,563.037,417.571,501.065C422.258,515.833,418.967,516.582,417.571,501.065z"/>
<path class="st0" d="M423.672,496.772c17.747,11.792,39.105,18.838,60.455,19.113c23.757,0.307,45.984-7.343,67.434-16.855
	C516.424,529.279,455.707,535.42,423.672,496.772C433.3,503.17,431.112,505.749,423.672,496.772z"/>
<path class="st0" d="M421.639,499.709c14.995,21.467,35.614,40.059,59.292,51.441c25.815,12.411,53.767,15.98,82.155,15.443
	C508.144,581.299,442.819,554.611,421.639,499.709C429.644,511.17,426.701,512.833,421.639,499.709z"/>
<circle class="st0" cx="555.404" cy="496.548" r="17.625"/>
<circle class="st0" cx="568.962" cy="565.012" r="17.625"/>
<circle class="st0" cx="530.323" cy="638.223" r="17.625"/>
<g>
	<g>
		<path class="st0" d="M706.707,373.24c-7.788,3.773-11.854,11.349-16.822,17.948c-1.466,1.947-2.97,3.353-4.552,4.307
			c-0.439-1.256-0.953-2.491-1.636-3.678c-3.104-5.391-10.304-11.596-17.092-8.664c-7.244,3.13-1.956,11.538,2.81,13.776
			c3.161,1.486,7.267,2.538,11.215,2.522c1.599,8.994-3.044,18.26-11.486,25.421c-3.263,2.765-7.644,5.744-12.087,6.95
			c1.671-3.664,2.44-7.602,1.84-11.716c-1.009-6.939-7.889-15.945-15.841-13.302c-8.508,2.833-8.51,14.361-4.465,20.788
			c2.839,4.508,6.595,6.767,10.745,7.433c-4.537,6.564-11.663,12.204-17.682,15.094c-8.291,3.978-22.745,5.316-29.344-1.863
			c5.05-1.994,9.973-5.006,14.656-9.287c4.601-4.205,7.178-11.666,0.447-15.262c-8.591-4.59-18.305,0.354-22.279,8.588
			c-3.11,6.447-2.25,11.488,0.776,15.237c-10.245,2.571-21.309,0.485-31.272-4.495c-10.368-5.182-19.242-13.036-27.295-21.312
			c-6.978-7.171-13.189-16.804-14.088-18.716c-3.061-6.506-7.225-7.754,2.086,16.055c2.692,6.883,4.378,14.237,4.481,21.66
			c0.286,12.726-5.167,27.626-16.447,34.542c-10.087,6.186-29.966,5.586-30.88-9.739c-0.331-5.549,3.018-11.278,9.214-10.802
			c6.227,0.482,3.164,7.29,7.694,7.59c3.715-8.601-6.896-13.515-13.777-10.903c-6.463,2.454-9.178,9.518-8.609,16.016
			c1.432,16.337,20.43,21.397,33.826,16.827c15.812-5.392,24.829-22.392,25.604-38.358c0.379-7.857-1.187-15.489-3.971-22.721
			c17.247,18.72,42.428,32.924,65.566,26.515c7.032,5.871,20.102,7.463,28.387,5.331c9.815-2.525,22.703-10.026,28.953-20.046
			c10.912-1.722,22.744-11.419,27.546-19.337c3.142-5.182,4.339-11.291,3.227-17.08c1.003-0.359,1.964-0.791,2.828-1.399
			c7.458-5.251,10.693-14.807,18.001-20.347c4.332-3.283,12.574-8.484,27.718-5.62C718.402,366.655,709.421,371.926,706.707,373.24z
			 M673.853,394.972c-2.522-1.324-5.35-3.553-5.321-6.702c0.032-3.625,1.99-4.345,4.379-2.125c3.623,3.362,5.893,6.987,7.074,10.698
			C678.112,396.736,676.099,396.15,673.853,394.972z M598.879,439.933c-0.448-5.888,3.521-15.389,10.501-15.499
			c12.326-0.19,4.833,12.514,0.072,16.334c-2.789,2.24-5.749,3.934-8.807,5.186C599.709,444.274,599.061,442.307,598.879,439.933z
			 M651.103,432.174c-2.247-0.424-4.382-1.561-6.247-3.747c-2.609-3.058-3.575-7.228-3.488-11.169
			c0.064-2.989,1.701-10.799,5.972-7.34C655.529,416.554,655.17,424.761,651.103,432.174z"/>
	</g>
</g>
<g>
	<g>
		<path class="st0" d="M164.568,379.905c1.205,2.058,6.199,13.985,8.414,25.052c2.559,12.773,4.201,26.042,2.401,38.992
			c-1.729,12.448-6.85,24.069-15.782,31.957c-1.556-5.208-5.693-9.227-13.677-10.448c-10.196-1.561-20.996,4.32-22.211,15.24
			c-0.949,8.556,7.634,10.921,14.482,9.327c6.973-1.624,12.915-4.281,17.995-7.705c2.465,10.722-8.005,23.311-16.999,28.482
			c-6.53,3.756-16.324,6.783-25.324,6.811c2.027-4.284,2.326-9.22-0.055-14.738c-3.396-7.865-14.12-15.222-22.187-9.116
			c-7.534,5.708-3.55,17.856,2.261,23.225c3.445,3.183,7.598,4.981,12.073,5.767c-3.958,3.361-9.528,5.535-14.181,6.807
			c-12.049,3.282-23.631,1.683-30.977-5.544c2.534-3.661,4.178-8.153,4.813-12.042c0.959-5.862-3.486-16.147-11.022-11.407
			c-7.058,4.442-5.879,15.099-2.85,21.427c0.67,1.394,1.487,2.661,2.376,3.871c-1.896,0.861-4.163,1.363-6.911,1.486
			c-9.308,0.406-18.949-0.648-27.43,4.188C16.822,533.221,6.187,538.21,0,556.268c7.003-15.912,17.102-20.259,22.922-22.194
			c9.818-3.26,20.773-0.169,30.416-3.755c1.119-0.415,2.132-1.033,3.106-1.737c4.674,4.73,11.124,7.517,17.947,7.902
			c10.432,0.587,27.001-4.228,35.57-13.278c13.309,0.585,28.512-6.616,37.127-14.133c7.27-6.346,14.132-19.517,13.16-29.807
			c37.909-33.838,16.651-83.675,10.378-97.653C161.607,370.052,161.23,374.202,164.568,379.905z M58.79,521.747
			c-2.696-3.469-4.621-7.892-5.436-13.408c-0.541-3.64,1.379-5.002,4.772-2.716c2.948,1.982,3.214,6.035,2.836,9.226
			C60.625,517.69,59.887,519.937,58.79,521.747z M110.087,517.438c-9.491-0.95-17.354-5.855-18.298-17.71
			c-0.49-6.179,7.819-2.716,10.639-0.867c3.721,2.435,6.984,5.995,8.162,10.374C111.432,512.366,111.127,515.077,110.087,517.438z
			 M155.113,479.299c-3.117,2.046-6.583,3.718-10.446,4.884c-6.593,1.988-23.191,0.848-15.148-10.495
			c4.56-6.422,15.931-4.051,21.121,0.126C152.731,475.5,154.148,477.359,155.113,479.299z"/>
	</g>
</g>
<g>
	<g>
		<path class="st0" d="M483.197,171.544c-0.455,0-0.9-0.229-1.154-0.646c-0.392-0.639-0.193-1.474,0.445-1.866l11.65-7.153
			c0.639-0.388,1.476-0.195,1.864,0.446c0.392,0.638,0.193,1.473-0.444,1.865l-11.651,7.153
			C483.685,171.479,483.441,171.544,483.197,171.544z"/>
	</g>
	<g>
		<path class="st0" d="M493.043,171.847c-0.475,0-0.935-0.249-1.182-0.692c-0.368-0.653-0.135-1.479,0.517-1.846l12.88-7.23
			c0.659-0.365,1.479-0.135,1.846,0.519c0.368,0.653,0.135,1.479-0.517,1.846l-12.88,7.23
			C493.495,171.792,493.268,171.847,493.043,171.847z"/>
	</g>
	<g>
		<path class="st0" d="M500.949,173.881c-0.543,0-1.057-0.328-1.263-0.866c-0.273-0.699,0.074-1.484,0.773-1.754l14.01-5.423
			c0.693-0.27,1.483,0.076,1.753,0.774c0.272,0.699-0.074,1.484-0.773,1.754l-14.01,5.423
			C501.277,173.852,501.113,173.881,500.949,173.881z"/>
	</g>
	<g>
		<path class="st0" d="M508.057,177.535c-0.641,0-1.21-0.457-1.329-1.109c-0.138-0.736,0.35-1.443,1.085-1.58l13.68-2.525
			c0.723-0.138,1.443,0.351,1.578,1.087c0.138,0.736-0.35,1.443-1.086,1.58l-13.679,2.525
			C508.224,177.529,508.139,177.535,508.057,177.535z"/>
	</g>
	<g>
		<path class="st0" d="M534.396,197.155c-0.085,0-0.172-0.008-0.257-0.024l-16.497-3.164c-0.735-0.142-1.218-0.851-1.077-1.587
			c0.14-0.736,0.863-1.212,1.586-1.076l16.497,3.164c0.735,0.142,1.218,0.852,1.077,1.587
			C535.601,196.703,535.031,197.155,534.396,197.155z"/>
	</g>
	<g>
		<path class="st0" d="M537.329,206.87c-0.105,0-0.214-0.012-0.325-0.039l-16.229-4.004c-0.726-0.179-1.17-0.913-0.99-1.641
			c0.178-0.727,0.89-1.188,1.642-0.992l16.229,4.004c0.726,0.179,1.17,0.914,0.99,1.64
			C538.494,206.457,537.938,206.87,537.329,206.87z"/>
	</g>
	<g>
		<path class="st0" d="M539.815,215.909c-0.098,0-0.195-0.011-0.296-0.033l-17.175-3.841c-0.73-0.163-1.189-0.888-1.027-1.618
			c0.167-0.733,0.885-1.192,1.62-1.028l17.175,3.841c0.73,0.163,1.188,0.889,1.027,1.618
			C540.997,215.48,540.438,215.909,539.815,215.909z"/>
	</g>
	<g>
		<path class="st0" d="M543.431,225.399c-0.128,0-0.258-0.019-0.387-0.057l-18.981-5.649c-0.718-0.213-1.126-0.968-0.914-1.685
			c0.212-0.716,0.959-1.129,1.687-0.913l18.98,5.649c0.718,0.213,1.126,0.968,0.914,1.686
			C544.556,225.019,544.016,225.399,543.431,225.399z"/>
	</g>
	<g>
		<path class="st0" d="M549.306,238.279c-0.203,0-0.41-0.046-0.607-0.143l-21.241-10.62c-0.67-0.335-0.94-1.149-0.606-1.819
			c0.339-0.67,1.151-0.936,1.819-0.607l21.241,10.62c0.67,0.335,0.94,1.149,0.607,1.819
			C550.28,238.005,549.801,238.279,549.306,238.279z"/>
	</g>
	<g>
		<path class="st0" d="M556.31,249.125c-0.26,0-0.519-0.073-0.749-0.227L529.349,231.5c-0.625-0.414-0.795-1.255-0.382-1.878
			c0.419-0.628,1.261-0.792,1.88-0.38l26.213,17.398c0.624,0.415,0.794,1.255,0.381,1.879
			C557.179,248.911,556.747,249.125,556.31,249.125z"/>
	</g>
	<g>
		<path class="st0" d="M545.917,249.802c-0.326,0-0.651-0.117-0.914-0.354l-19.057-17.344c-0.554-0.503-0.594-1.361-0.091-1.914
			c0.506-0.554,1.358-0.595,1.917-0.09l19.058,17.344c0.554,0.503,0.593,1.361,0.09,1.915
			C546.652,249.653,546.284,249.802,545.917,249.802z"/>
	</g>
	<g>
		<path class="st0" d="M534.393,250.48c-0.41,0-0.815-0.186-1.08-0.538l-14.011-18.529c-0.452-0.599-0.333-1.448,0.263-1.9
			c0.599-0.452,1.451-0.335,1.898,0.264l14.011,18.529c0.452,0.597,0.333,1.448-0.263,1.9
			C534.965,250.391,534.679,250.48,534.393,250.48z"/>
	</g>
	<g>
		<path class="st0" d="M524.675,250.254c-0.474,0-0.935-0.25-1.184-0.693l-10.618-18.98c-0.365-0.654-0.133-1.48,0.521-1.846
			c0.648-0.364,1.481-0.132,1.846,0.521l10.618,18.98c0.365,0.654,0.133,1.48-0.521,1.846
			C525.128,250.198,524.899,250.254,524.675,250.254z"/>
	</g>
	<g>
		<path class="st0" d="M515.862,249.802c-0.54,0-1.051-0.324-1.26-0.858l-7.682-19.432c-0.275-0.695,0.065-1.482,0.762-1.758
			c0.699-0.275,1.486,0.064,1.759,0.762l7.682,19.432c0.275,0.695-0.066,1.483-0.763,1.758
			C516.196,249.772,516.029,249.802,515.862,249.802z"/>
	</g>
	<g>
		<path class="st0" d="M505.241,247.769c-0.633,0-1.196-0.445-1.326-1.09l-3.842-19.207c-0.148-0.735,0.328-1.448,1.064-1.595
			c0.699-0.151,1.445,0.327,1.594,1.063l3.842,19.207c0.148,0.735-0.328,1.449-1.064,1.596
			C505.422,247.761,505.332,247.769,505.241,247.769z"/>
	</g>
	<g>
		<path class="st0" d="M497.107,245.735c-0.676,0-1.261-0.506-1.343-1.193l-2.262-18.754c-0.09-0.744,0.44-1.419,1.184-1.509
			c0.724-0.098,1.417,0.439,1.507,1.184l2.262,18.754c0.09,0.744-0.439,1.419-1.184,1.509
			C497.216,245.733,497.163,245.735,497.107,245.735z"/>
	</g>
	<g>
		<path class="st0" d="M487.17,242.119c-0.046,0-0.093-0.002-0.138-0.006c-0.744-0.074-1.29-0.739-1.213-1.484l1.809-18.076
			c0.071-0.745,0.738-1.291,1.483-1.214c0.744,0.074,1.29,0.739,1.213,1.484l-1.809,18.076
			C488.446,241.598,487.855,242.119,487.17,242.119z"/>
	</g>
	<g>
		<path class="st0" d="M481.521,239.183c-0.045,0-0.093-0.002-0.138-0.006c-0.744-0.074-1.29-0.739-1.213-1.484l1.806-18.078
			c0.072-0.745,0.758-1.276,1.483-1.214c0.744,0.074,1.289,0.739,1.213,1.484l-1.807,18.078
			C482.798,238.661,482.207,239.183,481.521,239.183z"/>
	</g>
	<g>
		<path class="st0" d="M474.952,234.209c-0.082,0-0.167-0.007-0.249-0.022c-0.736-0.136-1.224-0.843-1.086-1.58l3.181-17.17
			c0.132-0.739,0.855-1.231,1.578-1.087c0.736,0.136,1.223,0.843,1.085,1.579l-3.18,17.171
			C476.162,233.753,475.593,234.209,474.952,234.209z"/>
	</g>
	<g>
		<path class="st0" d="M468.186,226.981c-0.156,0-0.315-0.026-0.469-0.083c-0.704-0.259-1.061-1.039-0.803-1.742l5.424-14.688
			c0.259-0.702,1.046-1.061,1.739-0.803c0.704,0.26,1.062,1.04,0.803,1.743l-5.424,14.688
			C469.256,226.642,468.737,226.981,468.186,226.981z"/>
	</g>
	<g>
		<path class="st0" d="M463.216,218.62c-0.235,0-0.471-0.06-0.688-0.187c-0.643-0.38-0.861-1.211-0.479-1.856l6.778-11.524
			c0.379-0.65,1.208-0.86,1.856-0.482c0.644,0.38,0.86,1.211,0.479,1.856l-6.779,11.524
			C464.133,218.382,463.68,218.62,463.216,218.62z"/>
	</g>
	<g>
		<path class="st0" d="M460.505,207.323c-0.252,0-0.506-0.069-0.733-0.216c-0.63-0.404-0.814-1.243-0.408-1.874l6.102-9.49
			c0.404-0.631,1.241-0.812,1.874-0.406c0.631,0.404,0.814,1.243,0.408,1.874l-6.101,9.49
			C461.387,207.103,460.949,207.323,460.505,207.323z"/>
	</g>
	<g>
		<path class="st0" d="M512.698,182.242c-0.654,0-1.232-0.477-1.337-1.144c-0.117-0.74,0.389-1.434,1.128-1.55l12.879-2.034
			c0.718-0.127,1.433,0.386,1.552,1.127c0.117,0.74-0.389,1.434-1.128,1.55l-12.879,2.034
			C512.841,182.237,512.769,182.242,512.698,182.242z"/>
	</g>
	<g>
		<path class="st0" d="M530.775,188.343H516.54c-0.749,0-1.356-0.607-1.356-1.356c0-0.749,0.606-1.355,1.356-1.355h14.235
			c0.75,0,1.357,0.607,1.357,1.355C532.132,187.736,531.525,188.343,530.775,188.343z"/>
	</g>
</g>
<path class="st0" d="M130.165,249.51c-6.321,2.039-12.154,5.587-16.877,10.249c-12.134,11.976-17.835,32.449-7.664,47.369
	c8.607,12.784,29.8,19.077,40.348,5.055c3.279-4.361,5.042-10.675,3.132-15.987c-2.347-6.531-11.484-11.752-17.567-6.558
	c-3.015,2.572-4.336,7.907-0.763,10.62c2.326,1.765,4.916-0.413,3.186-0.707c-4.305-0.732-2.542-6.196,0.262-7.518
	c3.183-1.498,7.053,0.627,8.818,3.314c3.409,5.188-0.1,12.47-4.786,15.557c-4.948,3.259-11.471,2.473-16.588,0.06
	c-15.472-7.295-15.642-25.861-8.169-39.155c6.394-11.374,29.098-20.655,38.46-23.36c-4.843-0.911-17.398-3.712-22.137-5.917
	c-7.63-3.549-14.254-9.055-19.226-15.834c-10.867-15.216-13.609-39.4,5.627-49.33c8.791-4.537,20.149-3.749,24.993,5.966
	c3.059,6.139,0.937,16.46-7.662,15.547c-6.675-0.708-6.111-9.746-2.722-11.27c-9.734,0.08-8.474,14.29,0.047,15.81
	c8.864,1.581,17.559-3.961,18.97-12.077c1.303-7.059-1.901-14.683-6.962-19.541c-13.006-12.485-34.202-5.93-44.243,7.013
	C77.557,205.995,100.79,242.007,130.165,249.51z"/>
<path class="st0" d="M200.096,135.081c3.944-12.492-14.245-17.576-13.542-7.465c1.783-3.559,5.926-4.317,7.771-0.733
	c3.305,6.418-1.017,13.558-9.829,12.88c-8.812-0.678-14.953-11.798-12.594-20.943c5.17-21.45,29.253-23.525,45.838-14.427
	c16.074,8.816,25.304,26.228,25.608,44.314c0.008,0.523-0.138-8.181,0,0c0.021,1.361,1.554,1.461,2.163,0.695
	c1.122-6.025,2.957-12.935,4.216-15.819c2.91-6.664,7.474-12.611,13.294-16.991c12.051-9.067,31.832-12.719,42.013,1.045
	c6.473,8.751,6.383,27.963-8.901,27.136c-8.394-0.033-11.283-14.63-2.746-13.177c0.706,0.119,2.279,0.597,4.348,2.608
	c-0.375-3.932-3.425-5.627-5.852-5.386c-10.043,0.997-9.313,13.253-3.519,18.251c3.992,3.445,9.319,3.812,14.184,2.378
	c17.471-5.151,16.991-26.988,6.812-38.73c-20.201-23.3-53.27-6.069-62.907,18.523c-2.305-10.945-6.482-18.581-12.862-25.293
	c-12.621-13.279-33.627-20.672-51.007-12.652c-14.851,6.854-26.179,26.314-18.248,42.187
	C170.976,146.77,194.286,153.485,200.096,135.081z"/>
<g>
	<path class="st0" d="M160.155,143.849c-31.871-23.972-17.548-73.386,12.073-62.21C159.041,92.021,152.374,120.688,160.155,143.849z
		"/>
	<path class="st0" d="M138.96,114.714c-5.166-14.418,2.559-34.826,14.054-38.89C132.203,68.844,120.224,92.266,138.96,114.714z"/>
	<path class="st0" d="M148.044,158.747c-25.764-30.438-74.274-13.297-61.412,15.632C96.239,160.614,124.474,152.311,148.044,158.747
		z"/>
	<path class="st0" d="M117.739,139.261c-14.692-4.328-34.62,4.559-38.016,16.269C71.555,135.156,94.25,121.847,117.739,139.261z"/>
	<path class="st0" d="M144.535,144.073c0,0-77.738-29.011-54.424-52.435C111.036,70.612,144.535,144.073,144.535,144.073z"/>
</g>
<g>
	<path class="st0" d="M296.33,293.57C296.118,293.554,296.089,293.552,296.33,293.57L296.33,293.57z"/>
	<path class="st0" d="M557.612,246.947c-9.781-12.824-12.524-26.143-16.44-38.946c-4.168-13.634-6.636-29.294-16.722-40.672
		c-8.535-9.628-42.076-16.078-58.668,3.383c-28.709-24.34-57.987-32.476-77.172-35.025c8.217-2.117,16.062-5.106,23.933-7.561
		c48.186-15.026,52.572-45.328,69.625-49.568c10.467-2.603,23.566-2.672,28.248,8.672c3.48,8.422,1.764,24.211-7.833,28.354
		c-4.518,1.951-12.244,0.877-14.95-3.702c-2.5-4.225,1.054-12.155,6.583-8.656c-6.128-5.594-11.138,5.101-8.463,10.234
		c2.881,5.525,11.042,7.692,16.729,6.379c13.912-3.216,17.481-23.566,12.8-34.885c-5.438-13.163-20.627-15.466-32.976-11.296
		c-7.335,2.478-14.572,7.808-19.768,15.039c7.944-15.202,7.576-35.021-8.073-50.168c-12.509-12.105-33.522-15.674-49.357-8.298
		c-16.104,7.5-28.349,30.334-15.141,45.969c7.233,8.56,19.488,9.029,29.016,4.333c1.668-3.772-6.106-3.175-7.859-3.519
		c-4.337-0.852-8.722-2.506-11.508-6.126c-5.729-7.442-2.134-18.789,3.681-25.015c6.387-7.188,16.174-9.89,25.5-9.938
		c20.076-0.104,38.623,17.275,35.026,38.308c-3.458,20.221-25.759,34.705-43.431,40.966c-21.57,7.638-44.533,10.454-66.13,18.07
		c-19.584,6.904-37.188,17.868-49.977,34.211c2.2-11.275-13.238-20.17-20.384-7.522c-2.357-14.33-22.693-8.907-19.044,2.615
		c-6.36-12.199-22.178-6.776-19.442,5.661c-6.125-10.855-21.716-5.432-16.289,6.239c-10.623-10.542-19.436-1.051-14.369,8.707
		c-12.839-5.459-23.858,8.821-15.324,19.856c-13.242-9.956-22.959,1.568-12.669,14.355c-12.775-8.495-22.285,4.792-14.982,14.933
		c-18.807-5.123-24.908,22.894-5.232,24.671c-15.608,1.613-9.281,26.469,5.596,21.174c-9.303,7.736-1.059,19.825,8.133,19.29
		c-1.025,1.193-2.05,2.39-2.997,3.651c-10.661,14.184-14.903,31.071-17.659,48.314c-2.828,17.684-3.318,37.337-11.61,53.574
		c-6.677,13.075-21.039,24.943-36.538,20.178c-14.83-4.565-24.376-21.126-17.705-35.801c2.995-6.593,8.862-12.275,16.53-11.942
		c5.131,0.229,11.136,3.379,12.567,8.654c2.021,7.445-9.706,14.966-11.076,7.229c-0.013-0.079,2.281-7.637-1.013-4.798
		c-3.03,2.573-2.504,7.049,0.266,9.548c7.733,6.98,16.943-2.155,17.032-10.332c0.102-9.331-8.988-15.888-17.569-16.714
		c-21.904-2.107-32.112,25.389-25.026,42.685c8.476,20.696,34.088,28.746,53.055,17.62c19.194-11.26,25.528-30.067,29.18-50.51
		c3.429,5.839,9.136,10.16,15.299,12.773c12.78,5.421,30.37,4.708,39.659-6.808c8.602-10.66,7.666-31.698-8.342-34.732
		c-6.491-1.231-14.076,1.647-15.531,8.668c-1.137,5.486,3.025,12.561,9.472,9.945c-0.119-4.297-5.811-1.83-5.327-7.215
		c0.333-3.689,3.446-5.524,6.841-5.593c11.031-0.18,12.247,13.708,7.56,20.911c-10.456,16.066-39.347,5.604-47.868-9.048
		c2.907-20.061,5.019-40.655,15.411-56.509c25.231-38.497,80.141-28.53,111.73-17.625c-0.12-0.009-0.218-0.016-0.289-0.021
		c0.076,0.005,0.169,0.012,0.29,0.021c2.266,0.782,5.245,2.874,7.198,3.775c3.25,1.5,5,0.25,1.267-9.559
		c-1.337-3.514-4.539-25.797-4.908-33.249c-0.767-15.456,0.62-31.026,6.04-45.616c10.099-27.183,34.34-45.212,63.671-44.881
		c13.131,0.148,27.653,4.436,33.769,17.049c4.772,9.837,4.689,23.576-2.121,32.526c-7.221,9.493-27.314,12.251-31.653-1.632
		c-1.74-5.565,0.725-13.519,7.578-13.538c7.279-0.02,3.159,7.061,7.814,7.879c4.216-8.123-6.445-12.97-12.798-10.002
		c-5.74,2.68-7.748,9.932-6.588,15.75c2.974,14.896,22.27,17.526,33.584,10.897c13.83-8.103,17.294-27.624,12.651-41.936
		c-5.036-15.516-17.881-24.853-33.252-28.622c-32.93-8.073-65.036,12.82-78.366,42.523c-5.965,13.292-8.399,27.588-8.325,42.014
		c-3.005-67.387,57.021-91.715,78.52-96.909c11.643-0.204,52.76,1.692,91.923,35.056c-10.722,17.127-8.153,40.733,0.818,53.219
		c14.143,19.681,47.451,22.212,70.252,22.212c13.134,0,22.942-1.424,23.04-1.439l2.274-0.335L557.612,246.947z M283.599,172.815
		c-0.906-0.169-1.838-0.284-2.767-0.396c0.008-0.117,0.034-0.227,0.034-0.346c0-2.87-2.326-5.196-5.196-5.196
		c-2.871,0-5.197,2.326-5.197,5.196c0,0.095,0.022,0.186,0.028,0.279c-0.665,0.072-1.335,0.118-1.991,0.22
		c0.108-2.353-0.273-4.638-1.429-6.939C267.964,153.363,286.063,156.031,283.599,172.815z M264.507,166.514
		c0.98,2.218,1.567,4.306,1.306,6.591c-1.041,0.235-2.054,0.525-3.049,0.842c-0.651-2.125-2.605-3.681-4.945-3.681
		c-2.871,0-5.197,2.326-5.197,5.197c0,1.21,0.43,2.309,1.124,3.192c-1.345,1.099-2.546,2.324-3.521,3.71
		c0.916-3.524,0.148-7.822-1.927-11.047C245.644,162.068,260.966,158.496,264.507,166.514z M246.185,176.448
		c-0.535-0.185-1.1-0.307-1.697-0.307c-2.871,0-5.197,2.326-5.197,5.197c0,0.081,0.02,0.156,0.024,0.237
		c-0.688,0.015-1.373,0.039-2.048,0.101c-1.293-2.399-3.186-4.431-5.438-5.864C230.99,166.846,242.128,163.809,246.185,176.448z
		 M234.386,182.09c-0.941,0.188-1.86,0.466-2.778,0.754c-0.623-2.168-2.602-3.765-4.971-3.765c-2.871,0-5.197,2.326-5.197,5.196
		c0,1.246,0.457,2.376,1.188,3.27c-0.556,0.414-1.12,0.788-1.671,1.246c-0.583-1.082-1.334-2.092-2.247-2.971
		C213.289,177.726,224.376,167.555,234.386,182.09z M218.873,190.642c-0.907,0.856-1.81,1.753-2.703,2.734
		c-0.213,0.234-0.423,0.497-0.637,0.746c-0.907-0.774-2.071-1.26-3.357-1.26c-2.871,0-5.197,2.326-5.197,5.197
		c0,2.124,1.276,3.941,3.101,4.747c-0.832,1.837-1.533,3.752-2.011,5.689c-1.678-1.724-3.682-3.319-5.88-4.406
		C193.196,196.026,207.431,175.689,218.873,190.642z M207.465,211.842c-0.179,1.628-0.176,3.24,0.037,4.798
		c-0.948-1.259-2.441-2.085-4.139-2.085c-2.87,0-5.196,2.326-5.196,5.196c0,0.852,0.224,1.642,0.586,2.352
		c-1.369,0.797-2.705,1.652-3.957,2.625c-0.947-2.15-2.362-3.992-4.152-5.335C180.315,206.645,191.614,194.217,207.465,211.842z
		 M192.619,226.564c-0.316,0.287-0.601,0.606-0.906,0.905c-0.953-1.12-2.355-1.844-3.94-1.844c-2.871,0-5.197,2.327-5.197,5.197
		c0,2.077,1.228,3.856,2.99,4.688c-0.237,0.424-0.496,0.835-0.716,1.269c-2.915-3.052-6.392-4.744-10.018-4.794
		C167.354,222.603,183.028,212.068,192.619,226.564z M183.647,239.438c-0.159,0.395-0.292,0.803-0.438,1.204
		c-0.552-0.201-1.141-0.328-1.763-0.328c-2.871,0-5.197,2.326-5.197,5.196c0,2.791,2.206,5.051,4.968,5.174
		c-0.032,0.674-0.083,1.322-0.085,2.035c-3.46-0.729-6.732-0.729-10.217,0.921c-0.829,0.394-1.632,0.904-2.392,1.501
		C150.715,249.125,165.628,224.496,183.647,239.438z M181.205,255.572c0.03,0.569,0.095,1.161,0.145,1.744
		c-2.608,0.276-4.648,2.459-4.648,5.141c0,2.871,2.326,5.197,5.196,5.197c0.43,0,0.841-0.068,1.241-0.165
		c0.152,0.56,0.285,1.126,0.456,1.679c-3.946,1.081-7.651,3.347-9.99,6.524C163.532,276.435,158.856,254.246,181.205,255.572z
		 M189.2,288.713c-0.07,0.005-0.132-0.012-0.206,0.004c-12.296,8.945-27.207-9.991-4.546-17.026
		c0.354,0.951,0.749,1.871,1.164,2.775c-1.788,0.821-3.035,2.616-3.035,4.712c0,2.87,2.326,5.196,5.197,5.196
		c1.407,0,2.68-0.564,3.616-1.474c0.841,0.794,1.728,1.516,2.682,2.114C192.397,286.181,190.773,287.412,189.2,288.713z
		 M247.365,253.319c-9.575-5.928-28.41-14.023-32.252-14.136c2.148,3.728,21.064,11.872,31.83,15.272
		c-0.501,1.402-0.876,2.782-1.197,4.136c-13.064-7.396-30.805-10.941-45.095-8.788c11.894,8.266,29.438,12.926,44.447,12.032
		c-0.172,1.097-0.314,2.165-0.4,3.158c-10.629-1.108-21.975-0.505-32.297,1.756c10.414,1.464,21.726,1.217,32.216-0.675
		c-0.156,2.46-0.094,4.44-0.016,5.664c-9.06-0.612-18.178,0.041-27.03,2.366c-4.518,1.188-8.88,2.844-13.067,4.847
		c-0.004,0-0.007,0-0.011,0c-5.855,0.89-10.449-9.159-12.689-13.191c-3.117-5.613-3.364-12.601-1.95-18.642
		c4.923-21.041,18.029-21.492,22.086-21.072c9.182,1.44,37.53,22.947,37.53,22.947C248.65,250.417,247.939,251.865,247.365,253.319z
		 M253.281,243.725c-0.875,0.957-1.638,1.959-2.35,2.979c0,0-27.12-17.425-34.843-29.048c-3.698-6.003,4.008-16.523,7.392-20.241
		c7.377-8.102,14.294-8.917,23.719-6.135c5.521,5.306,17.312,44.877,17.312,44.877c-0.626,0.248-1.284,0.473-1.869,0.748
		c-1.647-9.009-5.562-18.304-10.104-26.066c1.155,8.983,4.666,18.493,8.913,26.671c-0.861,0.448-1.665,0.931-2.444,1.429
		c-3.624-12.648-12.672-25.578-23.106-32.521c1.865,12.488,9.825,26.289,19.838,34.933c-0.494,0.424-0.972,0.855-1.423,1.3
		c-6.523-6.719-14.512-12.646-22.709-16.8C237.592,232.757,245.23,239.036,253.281,243.725z M263.275,274.738
		c-2.672-0.682-5.377-1.228-8.092-1.704c1.552-24.441,16.885-29.168,26.625-28.745c0.326,3.649,1.489,7.159,2.208,10.715
		C267.537,254.47,262.096,266.721,263.275,274.738z M282.049,233.087c-0.89,0.004-1.743,0.04-2.594,0.077
		c2.066-9.584,2.738-19.877,1.864-29.457c-2.608,9.336-3.805,19.669-3.475,29.538c-0.764,0.053-1.49,0.138-2.222,0.217
		c4.129-13.497,3.261-30.653-2.438-43.086c-5.134,12.789-5.132,30.128-0.249,43.451c-0.469,0.077-0.957,0.139-1.41,0.228
		c-0.87-9.204-3.379-18.71-7.154-26.958c0.335,9.061,2.366,18.679,5.724,27.289c-1.063,0.247-2.048,0.549-3.029,0.856
		c0,0-10.887-29.15-13.57-44.027c13.576-17.65,31.071-9.93,38.866-4.021C285.946,201.268,282.282,217.236,282.049,233.087z
		 M301.164,171.563c-1.84,2.652-3.548,5.443-5.145,8.328c0.024-0.187,0.02-0.38,0.039-0.567c0.801-0.915,1.303-2.098,1.303-3.409
		c0-2.87-2.326-5.196-5.196-5.196c-2.1,0-3.898,1.251-4.717,3.043c-0.385-0.114-0.756-0.245-1.148-0.347
		c0.927-3.351,0.723-7.269-0.658-10.523c4.715-7.765,15.561-2.794,15.336,6.697c-0.015,0.63,0.333,1.024,0.78,1.199
		C301.568,171.055,301.351,171.293,301.164,171.563z M467.328,179.163c2.667,6.061,7.637,15.376,16.272,25.458
		c12.977,15.154,29.455,21.442,33.472,17.209c4.02-4.231-2.316-21.481-18.925-32.534c-12.104-8.054-21.855-12.667-27.652-15.054
		c3.779-1.124,10.267-2.686,17.193-2.686c8.688,0,15.567,2.401,20.453,7.137c7.498,7.273,9.696,17.601,11.82,27.589
		c1.826,8.586,3.563,16.747,8.394,23.046c-0.328,0.004-0.684,0.007-1.06,0.007c-10.872,0-37.669-1.786-51.647-18.325
		C468.793,202.896,466.031,192.182,467.328,179.163z M533.693,247.838c-22.168,0-51.42-3.936-64.89-22.684
		c-7.915-11.016-9.348-26.028-4.33-44.675c-0.998,13.066,2.031,23.914,9.103,32.281c14.71,17.407,42.468,19.288,53.719,19.288
		c2.532,0,4.023-0.099,4.023-0.099l2.913-0.195l-2.028-2.1c-5.767-5.975-7.624-14.698-9.589-23.935
		c-2.211-10.385-4.493-21.124-12.588-28.971c-5.407-5.245-12.922-7.903-22.338-7.903c-6.061,0-11.701,1.105-15.702,2.155
		c6.207-3.101,16.401-7.242,26.583-7.242c8.497,0,15.503,2.881,20.823,8.563c9.961,10.641,13.809,23.227,17.884,36.551
		c3.797,12.415,7.716,25.233,16.788,37.84C550.471,247.125,542.922,247.838,533.693,247.838z"/>
</g>
<g>
	<path class="st0" d="M148.079,433.286c12.172-7.706,23.253,9.236,11.211,17.689C145.546,460.62,136.172,440.878,148.079,433.286z"
		/>
	<path class="st0" d="M125.703,443.192c12.477-1.827,15.612,16.067,2.725,18.302C113.432,464.094,113.277,445.053,125.703,443.192z"
		/>
	<path class="st0" d="M103.198,441.724c11.439,1.682,7.981,20.35-4.275,15.361C89.707,453.333,93.255,440.263,103.198,441.724z"/>
	<path class="st0" d="M88.658,430.905c5.721,7.412-5.137,16.253-10.733,8.413C71.658,430.54,82.897,423.568,88.658,430.905z"/>
	<path class="st0" d="M78.145,414.271c2.719,7.165-8.068,11.556-10.448,4.035C64.626,408.593,75.387,407.103,78.145,414.271z"/>
	<path class="st0" d="M63.818,401.179c-1.345-5.971,7.218-7.843,8.547-1.946C73.717,405.12,65.192,407.15,63.818,401.179
		C63.218,398.518,64.429,403.838,63.818,401.179z"/>
</g>
<g>
	<path class="st0" d="M494.66,44.19c2.392,12.137-15.855,21.627-21.009,4.961C469.457,35.589,491.372,27.494,494.66,44.19z"/>
	<path class="st0" d="M474.714,16.467c10.239,9.254-3.032,23.073-13.022,14.386C450.448,21.078,464.435,7.127,474.714,16.467z"/>
	<path class="st0" d="M448.282,1.985c11.494,3.898,5.341,20.344-5.523,16.23C431.07,13.791,436.727-1.961,448.282,1.985z"/>
	<path class="st0" d="M419.227,0.617c11.454-4.065,15.143,13.254,3.842,14.304C411.526,15.994,410.416,3.743,419.227,0.617z"/>
	<path class="st0" d="M398.191,9.023c7.758-4.393,13.821,6.932,6.195,11.01C395.144,24.975,390.451,13.397,398.191,9.023z"/>
	<path class="st0" d="M381.8,22.837c5.206-5.016,12.445,2.543,7.211,7.463C382.717,36.218,376.61,27.859,381.8,22.837z"/>
	<path class="st0" d="M371.839,35.675c3.498-4.474,9.933,0.657,6.4,4.998C374.188,45.651,368.354,40.152,371.839,35.675z"/>
</g>
<g>
	<path class="st0" d="M587.05,136.048c8.248-13.968-0.31-30.635-10.008-41.268c-8.062-8.844-18.564-15.08-29.906-19.224
		c2.061-2.673,4.386-5.247,7.011-7.697c7.89-7.365,18.278-13.057,29.313-12.817c4.495,0.101,9.365,1.613,13.647,4.135
		c-0.129,0.136-0.272,0.255-0.398,0.393c-6.789,7.443-7.784,27.18,6.837,23.372c4.578-1.197,9.17-5.747,8.719-10.441
		c-0.56-5.873-6.747-10.61-12.596-13.815c0.128-0.127,0.256-0.271,0.385-0.389c10.561-9.844,32.261-8.358,41.986,2.296
		c-2.254,0.673-4.433,1.646-6.485,3.084c-5.497,3.852-10.029,12.359-5.912,18.628c2.932,4.463,10.023,3.691,13.691,0.867
		c5.322-4.102,6.887-12.961,4.43-18.952c-0.525-1.276-1.289-2.434-2.208-3.497c8.379-1.707,17.669,0.25,25.922-2.261
		c7.216-2.196,19.598-9.099,13.776-17.819c-2.129-3.196-9.339-6.699-13.009-7.442c8.517,2.778,13.832,9.207,10.718,15.908
		c-3.357,7.215-13.647,9.132-20.645,9.636c-5.798,0.423-11.84,0.068-17.507,1.173c-3.03-3.071-7.385-5.228-11.107-6.695
		c-11.095-4.373-26.223-3.527-35.376,4.752c-1.565-0.807-3.073-1.503-4.4-2.067c-16.59-7.08-34.693,3.925-45.718,15.809
		c-0.972,1.048-1.896,2.125-2.792,3.219c-9.047-3.115-18.116-5.764-27.229-7.315c-19.923-3.391-36.454,0-52.453,12.517
		c-0.741,2.239-2.254,6.412-3.196,8.56c6.535-4.006,14.005-9.541,21.146-12.446c19.02-7.733,37.146-7.211,56.632-1.38
		c1.369,0.408,2.729,0.863,4.078,1.356c-10.561,13.522-15.309,30.163-11.144,47.277c3.194,13.135,12.494,24.415,26.459,25.999
		C570.444,150.727,581.56,145.351,587.05,136.048z M642.961,61.674c4.973,6.286,3.538,19.963-5.108,22.468
		c-4.331,1.252-7.354-3.042-7.803-6.737c-0.785-6.476,5.166-12.759,10.57-15.152c0.703-0.313,1.423-0.572,2.147-0.807
		C642.829,61.523,642.896,61.596,642.961,61.674z M608.254,71.948c2.416,7.325-6.66,13.613-12.34,8.08
		c-5.296-5.155-1.754-14.751,2.556-20.012C602.984,62.999,606.669,67.141,608.254,71.948z M538.923,121.781
		c-4.887-16.88-2.081-32.086,7.211-44.899c18.346,7.247,34.065,22.166,37.732,42.867c2.433,13.725-2.69,25.608-16.148,28.266
		C551.646,151.184,543.042,136.024,538.923,121.781z"/>
</g>
</svg>