<svg id="Capa_1" enable-background="new 0 0 512 512" height="512" viewBox="0 0 512 512" width="512" xmlns="http://www.w3.org/2000/svg"><g><g><g><path d="m384.141 109.029c3.387-4.796 1.193-11.498-4.37-13.378-13.375-4.52-27.227-1.608-34.243 8.327s-5.127 23.963 3.605 35.056c3.632 4.614 10.682 4.44 14.069-.356z" fill="#fb8627"/><path d="m264.014 68.631c-3.387 4.796-1.193 11.498 4.37 13.378 13.375 4.52 27.227 1.608 34.243-8.327s5.127-23.963-3.605-35.056c-3.632-4.614-10.682-4.44-14.069.356z" fill="#f2671f"/><path d="m302.623 73.68c-6.62 9.39-19.34 12.5-32 9.01 5.13-1.61 9.55-4.63 12.65-9.01 6.2-8.78 5.45-20.77-.86-31.1l2.54-3.6c3.39-4.79 10.44-4.97 14.07-.35 8.73 11.09 10.62 25.12 3.6 35.05z" fill="#e25010"/></g><circle cx="324.077" cy="88.83" fill="#fb7722" r="28.352"/><path d="m347.242 105.183c-9.034 12.792-26.734 15.84-39.525 6.806-8.144-5.751-12.337-15.017-11.96-24.288 1.72 2.28 3.826 4.342 6.293 6.084 12.792 9.034 30.478 5.988 39.512-6.803 3.277-4.64 4.964-9.924 5.167-15.204 7.216 9.578 7.799 23.089.513 33.405z" fill="#f2671f"/></g><g><g><g><g><g><path d="m166.923 222.218h-66.165c-30.153 20.268-51.289 67.397-51.289 122.307 0 73.409 37.774 132.918 84.372 132.918 46.597 0 84.372-59.51 84.372-132.918-.001-54.91-21.137-102.039-51.29-122.307z" fill="#e25010"/><path d="m411.242 222.218h-66.165c-30.153 20.268-51.289 67.397-51.289 122.307 0 73.409 37.774 132.918 84.372 132.918 46.597 0 84.372-59.51 84.372-132.918-.001-54.91-21.137-102.039-51.29-122.307z" fill="#f2671f"/></g><path d="m130.314 222.218c-23.684 27.774-39.027 72.217-39.027 122.307 0 84.156 43.305 152.377 96.724 152.377s96.724-68.222 96.724-152.377c0-50.09-15.343-94.532-39.028-122.307z" fill="#f2671f"/><path d="m266.293 222.218c-23.684 27.774-39.028 72.217-39.028 122.307 0 84.156 43.305 152.377 96.724 152.377s96.724-68.222 96.724-152.377c0-50.09-15.343-94.532-39.027-122.307z" fill="#f2671f"/><path d="m347.243 222.218c23.685 27.776 39.031 72.218 39.031 122.305 0 74.889-34.301 137.181-79.503 149.982 5.593 1.578 11.342 2.403 17.222 2.403 53.412 0 96.725-68.233 96.725-152.384 0-50.089-15.347-94.531-39.034-122.305h-34.441z" fill="#e25010"/><g><path d="m197.096 222.218c-19.029 29.345-31.12 73.242-31.12 122.307 0 88.352 39.193 159.975 87.541 159.975s87.541-71.623 87.541-159.975c0-49.064-12.091-92.961-31.12-122.307z" fill="#fb8627"/><path d="m271.026 222.218c19.03 29.344 31.119 73.241 31.119 122.305 0 76.132-29.102 139.847-68.089 156.005 6.263 2.594 12.776 3.968 19.457 3.968 48.345 0 87.546-71.615 87.546-159.974 0-49.062-12.094-92.959-31.125-122.305h-38.908z" fill="#fb7722"/></g></g></g></g><g><g><g><circle cx="181.021" cy="313.055" fill="#fcb44d" r="38.02"/><path d="m219.038 313.054c0 21.001-17.02 38.022-38.014 38.022-9.507 0-18.205-3.488-24.872-9.257.346.007.692.015 1.045.015 21.001 0 38.022-17.028 38.022-38.022 0-11.494-5.099-21.789-13.15-28.765 20.515.552 36.969 17.366 36.969 38.007z" fill="#fb9927"/><g><path d="m162.23 341.495c.662 2.06 1.501 4.033 2.495 5.916-3.105-1.479-5.983-3.363-8.551-5.593.338.007.677.015 1.023.015 1.707.001 3.384-.11 5.033-.338z" fill="#fca62f"/></g></g><g><circle cx="330.979" cy="313.055" fill="#fcb44d" r="38.02"/><path d="m368.998 313.054c0 21.001-17.02 38.022-38.022 38.022-9.507 0-18.198-3.488-24.865-9.257.346.007.692.015 1.045.015 20.994 0 38.014-17.028 38.014-38.022 0-11.494-5.099-21.789-13.15-28.765 20.525.552 36.978 17.366 36.978 38.007z" fill="#fb9927"/></g></g><g><path d="m374.575 380.283c-21.207 42.157-66.33 81.909-118.576 81.909-52.239 0-97.369-39.752-118.576-81.909-3.429-6.814 3.996-13.945 10.699-10.295 13.569 7.395 30.715 11.384 50.215 13.496.383 3.73 1.156 9.496 2.643 15.231.843 3.249 3.774 5.52 7.13 5.52h11.383c4.064 0 7.359-3.295 7.359-7.359v-11.501c9.404.316 19.154.412 29.147.412 43.32 0 82.07-1.729 107.877-15.799 6.703-3.65 14.135 3.481 10.699 10.295z" fill="#fcb44d"/><path d="m374.576 380.282c-21.207 42.157-66.33 81.908-118.576 81.908-4.562 0-9.073-.302-13.518-.89 38.971-11.112 70.01-41.039 82.666-79.333 14.776-2.34 27.889-6.071 38.728-11.98 6.705-3.649 14.137 3.481 10.7 10.295z" fill="#fb9927"/></g></g></g><ellipse cx="256" cy="222.218" fill="#9a5e5f" rx="156.183" ry="23.28"/><path d="m412.18 222.22c0 12.85-69.92 23.28-156.18 23.28s-156.18-10.43-156.18-23.28c0-3.58 5.43-6.98 15.14-10.01 25.11 7.85 78.82 13.27 141.04 13.27s115.93-5.42 141.04-13.27c9.71 3.03 15.14 6.43 15.14 10.01z" fill="#845152"/><path d="m334.86 207.86c0 13.92-5.67 26.51-14.83 35.6-19.54 1.31-41.21 2.04-64.03 2.04-1.47 0-2.93 0-4.39-.01-10.42-9.19-17-22.64-17-37.63 0-27.68 22.44-50.13 50.12-50.13 27.69 0 50.13 22.45 50.13 50.13z" fill="#e89a5e"/><path d="m334.86 207.86c0 13.92-5.67 26.51-14.83 35.6-8.8.59-18.02 1.06-27.6 1.4-2.13-25.71-23.68-45.92-49.95-45.92-2.43 0-4.82.17-7.16.51 3.99-23.68 24.6-41.72 49.41-41.72 27.69 0 50.13 22.45 50.13 50.13z" fill="#d68a5a"/><g><circle cx="319.068" cy="155.869" fill="#27e19d" r="56.359"/><path d="m373.451 170.665c-8.172 30.038-39.141 47.76-69.179 39.587-26.304-7.156-43.166-31.798-41.451-57.986 3.243 17.143 15.931 31.798 33.898 36.686 25.088 6.826 50.963-7.981 57.788-33.069 6.277-23.072-5.752-46.812-27.242-55.778 2.201.329 4.399.782 6.599 1.381 30.038 8.172 47.76 39.141 39.587 69.179z" fill="#1ec186"/></g><g><g><path d="m214.322 82.747c-2.185-5.45-9.004-7.25-13.605-3.602-11.063 8.771-16.146 21.981-11.619 33.27s17.329 17.327 31.387 16.025c5.847-.542 9.532-6.554 7.347-12.003z" fill="#915eb2"/><path d="m220.48 128.44c-5.13.47-10.09-.03-14.54-1.41 2.63-4.53 4.14-9.89 4.14-15.64 0-11.66-6.23-21.74-15.26-26.49 1.71-2.06 3.69-4 5.9-5.75 4.6-3.65 11.42-1.85 13.6 3.6l13.51 33.69c2.19 5.45-1.5 11.46-7.35 12z" fill="#804ea0"/><path d="m115.127 161.632c2.185 5.45 9.004 7.25 13.605 3.602 11.063-8.771 16.146-21.981 11.619-33.27s-17.329-17.327-31.387-16.025c-5.847.542-9.532 6.554-7.347 12.003z" fill="#804ea0"/><path d="m128.73 165.23c-4.6 3.65-11.42 1.85-13.6-3.6l-1.19-2.98c7.57-8.42 10.51-19.22 6.72-28.68-2.49-6.24-7.52-10.87-13.89-13.54.69-.25 1.42-.42 2.19-.49 14.06-1.3 26.86 4.73 31.39 16.02s-.56 24.5-11.62 33.27z" fill="#6e4189"/></g><circle cx="164.724" cy="122.19" fill="#915eb2" r="28.352"/><path d="m191.041 111.632c5.828 14.535-1.232 31.049-15.767 36.878-9.254 3.711-19.31 2.195-26.888-3.16 2.848-.205 5.724-.852 8.527-1.976 14.535-5.829 21.59-22.33 15.762-36.865-2.114-5.272-5.633-9.56-9.955-12.6 11.962-.853 23.62 6 28.321 17.723z" fill="#804ea0"/></g><g><g><path d="m175.287 187.759c-4.47 3.807-4.006 10.843.917 14.043 11.837 7.694 25.978 8.308 35.238.422s10.908-21.944 5.198-34.855c-2.375-5.37-9.248-6.95-13.718-3.143z" fill="#f82f40"/><path d="m211.44 202.22c-9.12 7.77-22.99 7.3-34.72-.1 6.3.21 12.28-1.6 17-5.62 8.18-6.97 10.42-18.75 6.89-30.31l2.31-1.96c4.47-3.81 11.35-2.23 13.72 3.14 5.71 12.91 4.06 26.97-5.2 34.85z" fill="#e22334"/></g><path d="m246.85 243.8c-.69.58-1.39 1.13-2.12 1.64-11.65-.12-22.95-.44-33.76-.92-1.47-1.14-2.84-2.45-4.09-3.92-10.15-11.92-8.72-29.82 3.21-39.97 11.92-10.15 29.81-8.72 39.96 3.21 10.16 11.92 8.72 29.81-3.2 39.96z" fill="#fb4a59"/><path d="m246.85 243.8c-.69.58-1.39 1.13-2.12 1.64-9.35-.1-18.47-.32-27.29-.66 11.81-2.69 20.99-12.81 21.94-25.52.78-10.36-4.11-19.83-12.05-25.37 8.4-.33 16.85 3.05 22.72 9.95 10.16 11.92 8.72 29.81-3.2 39.96z" fill="#f82f40"/></g><g><path d="m473.153 246.355v-128.913c0-64.757-52.684-117.442-117.442-117.442h-199.422c-64.758 0-117.442 52.685-117.442 117.442v128.913c0 11.194 6.442 21.027 16.21 25.637-8.562 21.815-13.088 46.813-13.088 72.532 0 36.909 9.191 71.716 25.88 98.007 17.36 27.35 40.797 42.411 65.992 42.411 1.277 0 2.559-.054 3.835-.133 15.185 12.795 32.37 19.593 50.335 19.593 9.521 0 18.921-1.962 27.99-5.786 11.655 8.707 24.384 13.384 37.519 13.384 13.952 0 27.329-5.113 39.462-14.713 9.993 4.719 20.409 7.116 31.008 7.116 17.965 0 35.15-6.798 50.334-19.592 1.277.079 2.559.132 3.836.132 25.195 0 48.632-15.062 65.992-42.411 16.688-26.291 25.88-61.098 25.88-98.007 0-25.719-4.526-50.717-13.087-72.531 9.769-4.608 16.208-14.433 16.208-25.639zm-363.297-7.913c-16.851 29.21-26.069 66.528-26.069 106.083 0 42.107 10.476 81.8 29.498 111.767 2.736 4.31 5.609 8.341 8.596 12.105-15.424-3.998-29.803-15.685-41.368-33.904-15.183-23.918-23.544-55.869-23.544-89.968 0-46.847 16.271-89.786 41.807-111.388 3.818 2.745 8.63 4.441 11.08 5.305zm153.786-50.856c7.217 12.611 18.258 22.17 31.543 27.498l-6.089 22.379c-9.286.302-18.793.476-28.418.519 1.951-3.987 3.163-8.342 3.528-12.899.766-9.546-2.234-18.818-8.444-26.104-2.881-3.387-6.3-6.149-10.086-8.223 2.762-6.325 6.991-11.835 12.346-16.13 1.38 4.463 3.244 8.808 5.62 12.96zm7.143-112.683c-.507-.171-.723-.541-.814-.821-.131-.402-.073-.78.169-1.125l20.938-29.649c.244-.344.581-.524 1.004-.535.286-.021.717.071 1.046.491 4.952 6.291 7.135 13.619 5.974 19.854-1.561 1.517-3.01 3.19-4.31 5.03-1.282 1.816-2.368 3.735-3.277 5.722-5.482 3.187-13.171 3.588-20.73 1.033zm57.173 17.744c-.929-.102-2.886-.371-3.813-.424-6.922-.554-13.761.035-20.292 1.65-1.439-5.824-.326-12.093 3.192-17.072 6.631-9.391 19.669-11.635 29.062-5.005 8.1 5.721 10.868 16.202 7.225 25.004-2.423-.991-4.923-1.85-7.498-2.551-2.623-.713-5.252-1.231-7.876-1.602zm49.411 10.11c.508.171.723.541.814.821.131.402.073.78-.169 1.125l-8.472 11.996c-3.71-4.784-8.093-9.026-13.034-12.591.053-.113.109-.225.161-.338 5.477-3.169 13.174-3.557 20.7-1.013zm-26.411 108.526c32.741 3.797 46.078 8.4 51.239 10.935-4.727 2.318-16.313 6.371-43.414 9.965-7.197.954-14.931 1.798-23.081 2.528 3.141-5.966 5.24-12.462 6.142-19.165 3.114-1.188 6.219-2.602 9.114-4.263zm-19.979 132.292c-16.829 0-30.521-13.691-30.521-30.52s13.691-30.521 30.521-30.521c16.828 0 30.52 13.691 30.52 30.521 0 16.829-13.691 30.52-30.52 30.52zm-8.317-75.265c-21.14 3.922-37.203 22.487-37.203 44.745 0 25.1 20.421 45.52 45.521 45.52.748 0 1.491-.021 2.23-.057-.239 4.892-.61 9.754-1.096 14.557-22.528 4.674-49.594 5.211-76.114 5.211-11.443 0-20.625-.13-28.896-.408-2.027-.075-4.004.69-5.465 2.104-1.462 1.413-2.287 3.358-2.287 5.392v11.359h-11.137c-1.343-5.204-2.055-10.489-2.417-14.017-.361-3.521-3.135-6.31-6.653-6.69-9.047-.98-17.131-2.34-24.339-4.099-.446-4.593-.781-9.248-1.001-13.925 2.36.373 4.769.571 7.216.571 25.1 0 45.52-20.42 45.52-45.52 0-23.902-18.521-43.547-41.964-45.368 1.82-5.83 3.847-11.451 6.064-16.798 20.272 1.38 42.448 2.109 65.359 2.109 21.106 0 41.591-.617 60.537-1.793 2.244 5.443 4.292 11.168 6.125 17.107zm-6.058-32.15c-3.868.245-7.798.468-11.789.665l4.843-17.798c3.157.473 6.316.714 9.453.714 2.232 0 4.453-.122 6.654-.354-1.741 6.174-4.871 11.938-9.161 16.773zm-102.698.972c-3.61-4.24-6.67-11.028-6.225-16.581.444-5.554 3.026-10.6 7.271-14.211 4.24-3.609 9.629-5.357 15.182-4.908 5.551.444 10.595 3.026 14.208 7.273 3.612 4.238 5.357 9.629 4.912 15.179-.438 5.46-2.952 10.423-7.07 14.022-9.616-.128-19.079-.388-28.278-.774zm-3.251-46.032c-1.901 1.095-3.72 2.365-5.426 3.818-1.707 1.453-3.251 3.045-4.635 4.748-6.088 1.71-13.649.174-20.302-4.152-.449-.292-.566-.704-.585-.998-.027-.422.121-.774.442-1.048l27.636-23.533c.32-.271.688-.365 1.104-.27.287.065.675.247.892.736 3.2 7.237 3.525 14.971.874 20.699zm-35.628 18.741c5.895 3.275 12.149 5.123 18.264 5.466-.258 1.328-.452 2.676-.562 4.045-.468 5.837.477 11.569 2.695 16.81-15.306-.969-29.58-2.305-42.208-3.979-27.205-3.607-38.777-7.679-43.469-9.992 6.709-3.251 25.093-8.67 65.28-12.35zm-49.078 238.412c-17.516-27.594-27.162-64.433-27.162-103.729 0-38.526 9.239-74.586 26.068-101.971 5.76 1.272 12.304 2.456 19.601 3.544 9.301 1.386 19.549 2.578 30.523 3.563-2.428 6.281-4.612 12.863-6.532 19.667-11.385 3.283-21.248 10.931-27.188 21.57-2.019 3.617-.724 8.186 2.893 10.205 3.616 2.019 8.186.724 10.205-2.893 5.397-9.668 15.614-15.674 26.664-15.674 16.828 0 30.52 13.691 30.52 30.521 0 16.828-13.691 30.52-30.52 30.52-11.667 0-22.146-6.501-27.345-16.965-1.843-3.71-6.348-5.221-10.054-3.38-3.71 1.844-5.223 6.345-3.38 10.054 4.163 8.378 10.598 15.048 18.358 19.431.129 4.774.375 9.547.729 14.281-2.71-1.111-5.254-2.305-7.622-3.595-5.918-3.223-13.14-2.24-17.974 2.441-4.816 4.663-6.027 11.821-3.013 17.811 10.247 20.37 25.006 38.949 42.682 53.731.382.319.771.622 1.154.937.015.041.025.083.04.124 7.612 19.997 17.483 36.489 28.823 48.757-5.072 1.458-10.228 2.2-15.411 2.2-23.175-.001-45.215-14.615-62.059-41.15zm72.441 6.153c12.527 6.782 25.604 11.431 38.748 13.674.427.072.851.107 1.27.107 3.588 0 6.761-2.584 7.385-6.24.696-4.083-2.049-7.957-6.133-8.654-37.951-6.474-75.452-36.454-95.537-76.381-.043-.085-.058-.137-.063-.142.036-.102.207-.256.291-.271.001 0 .061.008.184.074 12.102 6.596 27.554 11.082 47.102 13.66.48 3.177 1.152 6.769 2.086 10.363 1.699 6.558 7.616 11.138 14.389 11.138h11.384c8.193 0 14.858-6.665 14.858-14.858v-3.793c6.407.139 13.464.204 21.647.204 40.889 0 83.177-1.291 111.463-16.712.117-.064.178-.075.177-.076.099.016.279.181.305.239 0 .001-.008.055-.068.175-20.047 39.848-57.476 69.815-95.355 76.348-4.082.703-6.82 4.583-6.116 8.665.703 4.081 4.588 6.82 8.665 6.116 10.64-1.834 21.235-5.251 31.53-10.09-14.656 24.777-33.703 39.048-53.082 39.048-20.507 0-40.263-15.563-55.13-42.594zm131.787-10.467c2.878-2.094 5.716-4.292 8.497-6.621 17.639-14.77 32.37-33.327 42.598-53.658 3.021-5.988 1.814-13.146-3.001-17.812-4.837-4.688-12.063-5.671-17.985-2.445-3.904 2.128-8.168 3.953-12.73 5.52.373-4.573.64-9.182.802-13.803 16.502-6.843 28.142-23.117 28.142-42.065 0-22.623-16.592-41.438-38.245-44.932-1.792-6.228-3.81-12.266-6.031-18.052 12.792-1.058 24.678-2.388 35.32-3.974 7.297-1.087 13.84-2.272 19.6-3.544 16.829 27.385 26.069 63.444 26.069 101.971 0 39.296-9.646 76.135-27.162 103.729-16.844 26.535-38.884 41.149-62.062 41.149-6.459 0-12.86-1.162-19.118-3.417 9.539-10.713 18.33-25.471 25.306-42.046zm71.967-205.497c2.45-.864 7.261-2.56 11.08-5.305 25.536 21.603 41.807 64.541 41.807 111.388 0 34.099-8.361 66.05-23.544 89.968-11.565 18.219-25.944 29.906-41.368 33.904 2.987-3.764 5.86-7.795 8.596-12.105 19.022-29.967 29.498-69.659 29.498-111.767 0-39.556-9.218-76.874-26.069-106.083zm56.009 7.913c0 5.168-2.898 9.717-7.329 11.948-8.444-16.678-19.233-30.207-31.635-39.598-2.18-7.176-12.69-14.697-52.308-20.476 2.893-3.27 5.485-6.872 7.708-10.788 2.046-3.602.784-8.18-2.818-10.225-3.601-2.046-8.18-.783-10.225 2.818-11.014 19.394-33.756 28.842-55.306 22.979-12.593-3.426-23.099-11.551-29.58-22.878-4.605-8.046-6.774-17.024-6.424-26.064 1.498 5.959 4.266 11.58 8.225 16.518 7.242 9.036 17.57 14.711 29.081 15.979 1.34.147 2.67.22 3.988.22 18.19-.001 33.902-13.732 35.94-32.225.891-8.084-1.421-16.03-6.508-22.376-5.086-6.346-12.339-10.331-20.424-11.222-14.165-1.565-26.971 8.699-28.532 22.871-.453 4.117 2.517 7.822 6.634 8.276 4.104.44 7.822-2.516 8.276-6.634.655-5.951 6.037-10.245 11.98-9.604 4.102.451 7.781 2.474 10.362 5.693 2.58 3.219 3.753 7.251 3.301 11.352-1.279 11.612-11.78 20.019-23.376 18.737-7.528-.829-14.283-4.54-19.02-10.45-4.737-5.909-6.889-13.31-6.06-20.838 1.091-9.908 5.976-18.798 13.754-25.032 7.235-5.8 16.162-8.654 25.354-8.143 2.886.248 5.788.741 8.681 1.529 19.195 5.222 33.193 21.358 35.661 41.108.514 4.109 4.273 7.014 8.372 6.512 4.11-.514 7.026-4.263 6.513-8.373-.748-5.98-2.313-11.701-4.576-17.055l12.402-17.56c2.991-4.236 3.784-9.494 2.178-14.426-1.609-4.937-5.354-8.721-10.273-10.384-7.599-2.568-15.297-3.124-22.303-1.743-.079-1.35-.225-2.704-.458-4.057-1.625-9.438-6.828-17.678-14.651-23.203-9.284-6.555-20.637-8.056-30.78-5.088-1.053-7.086-4.141-14.215-9.065-20.47-3.211-4.08-8.02-6.352-13.223-6.208-5.185.135-9.874 2.642-12.865 6.878l-20.938 29.649c-2.991 4.235-3.785 9.493-2.179 14.425 1.609 4.937 5.354 8.722 10.274 10.385 4.927 1.665 9.886 2.488 14.668 2.488 2.619 0 5.184-.25 7.663-.741.155 2.802.626 5.594 1.442 8.316-15.33 7.934-27.429 21.998-32.308 39.927-1.73 6.361-2.452 12.835-2.211 19.24-10.938 6.515-19.316 16.348-24.014 28.13-1.336-.104-2.664-.128-3.984-.086.739-7.112-.505-14.738-3.739-22.051-2.101-4.75-6.209-8.138-11.271-9.294-5.055-1.15-10.219.112-14.168 3.474l-27.636 23.533c-3.948 3.361-6.021 8.258-5.687 13.434.007.101.028.198.037.299-18.523 1.967-34.207 4.526-45.771 7.491-10.952 2.81-23.326 7.056-26.107 15.367-12.438 9.393-23.257 22.946-31.721 39.661-4.43-2.232-7.33-6.783-7.33-11.946v-128.912c.003-56.487 45.958-102.442 102.445-102.442h199.422c56.487 0 102.442 45.955 102.442 102.442z"/><path d="m221.283 79.964c-1.926-4.814-5.906-8.34-10.919-9.672-5.02-1.334-10.235-.247-14.301 2.979-6.269 4.964-10.922 11.139-13.576 17.781-1.181-.671-2.401-1.286-3.668-1.828-8.806-3.764-18.551-3.876-27.438-.311-8.889 3.564-15.857 10.377-19.622 19.183-.542 1.268-.999 2.556-1.39 3.858-6.512-2.967-14.145-4.219-22.101-3.482-5.173.479-9.691 3.297-12.397 7.729-2.703 4.427-3.144 9.725-1.212 14.529l13.508 33.686c1.926 4.814 5.905 8.34 10.918 9.672 1.407.374 2.829.558 4.236.558 3.616 0 7.139-1.214 10.065-3.536 6.264-4.961 10.916-11.137 13.572-17.784 1.182.671 2.403 1.288 3.672 1.83 4.529 1.937 9.306 2.906 14.088 2.906 4.515 0 9.033-.864 13.35-2.596 8.889-3.563 15.857-10.376 19.623-19.182.542-1.266.998-2.554 1.389-3.854 5.282 2.406 11.3 3.685 17.633 3.685 1.471 0 2.958-.068 4.457-.207 5.176-.478 9.698-3.294 12.407-7.728 2.704-4.426 3.146-9.725 1.215-14.532zm-86.812 61.519c-.333 6.296-4.22 12.976-10.401 17.871-.419.334-.849.313-1.131.237-.405-.108-.689-.359-.848-.753l-13.512-33.696c-.156-.389-.124-.767.095-1.125.153-.251.447-.561.976-.61 7.856-.723 15.28 1.414 19.868 5.721.432 2.156 1.094 4.32 1.931 6.405.833 2.081 1.848 4.097 3.022 5.95zm49.427-11.095c-2.19 5.121-6.243 9.083-11.414 11.156-5.167 2.072-10.836 2.009-15.958-.181-5.121-2.189-9.083-6.242-11.156-11.413-2.073-5.169-2.009-10.837.181-15.958 2.189-5.122 6.242-9.084 11.413-11.157 2.51-1.007 5.138-1.509 7.764-1.509 2.781 0 5.561.563 8.194 1.689 5.121 2.19 9.084 6.243 11.157 11.413v.001c2.073 5.17 2.009 10.838-.181 15.959zm15.997-15.168c-.432-2.156-1.058-4.289-1.894-6.374v.001c-.834-2.08-1.853-4.05-3.026-5.903.324-6.285 4.217-13.016 10.407-17.918.419-.333.847-.313 1.13-.236.405.107.69.358.848.752l13.512 33.694c.155.389.124.767-.095 1.125-.153.251-.449.562-.986.611-7.848.719-15.307-1.445-19.896-5.752z"/></g></g></svg>